<svg width="62" height="45" viewBox="0 0 62 45" fill="none" xmlns="http://www.w3.org/2000/svg">
<g filter="url(#filter0_d_54_572)">
<path d="M52.5625 4.04605H9.4375C6.67608 4.04605 4.4375 6.28464 4.4375 9.04606V35.9539C4.4375 38.7154 6.67608 40.9539 9.4375 40.9539H52.5625C55.3239 40.9539 57.5625 38.7154 57.5625 35.9539V9.04605C57.5625 6.28463 55.3239 4.04605 52.5625 4.04605Z" fill="#545454"/>
</g>
<g filter="url(#filter1_d_54_572)">
<path d="M47.6898 18.2688H10.5493C10.4195 18.2688 10.3142 18.1636 10.3142 18.0338C10.3142 17.9039 10.4195 17.7987 10.5493 17.7987H47.6898C47.8196 17.7987 47.9248 17.9039 47.9248 18.0338C47.9248 18.1636 47.8196 18.2688 47.6898 18.2688Z" fill="#D3D3D3"/>
<path d="M47.6898 18.2688H10.5493C10.4195 18.2688 10.3142 18.1636 10.3142 18.0338C10.3142 17.9039 10.4195 17.7987 10.5493 17.7987H47.6898C47.8196 17.7987 47.9248 17.9039 47.9248 18.0338C47.9248 18.1636 47.8196 18.2688 47.6898 18.2688Z" stroke="#D3D3D3"/>
<path d="M47.6898 18.2688H10.5493C10.4195 18.2688 10.3142 18.1636 10.3142 18.0338C10.3142 17.9039 10.4195 17.7987 10.5493 17.7987H47.6898C47.8196 17.7987 47.9248 17.9039 47.9248 18.0338C47.9248 18.1636 47.8196 18.2688 47.6898 18.2688Z" stroke="#D3D3D3"/>
<path d="M47.6898 18.2688H10.5493C10.4195 18.2688 10.3142 18.1636 10.3142 18.0338C10.3142 17.9039 10.4195 17.7987 10.5493 17.7987H47.6898C47.8196 17.7987 47.9248 17.9039 47.9248 18.0338C47.9248 18.1636 47.8196 18.2688 47.6898 18.2688Z" stroke="#D3D3D3"/>
<path d="M47.6898 18.2688H10.5493C10.4195 18.2688 10.3142 18.1636 10.3142 18.0338C10.3142 17.9039 10.4195 17.7987 10.5493 17.7987H47.6898C47.8196 17.7987 47.9248 17.9039 47.9248 18.0338C47.9248 18.1636 47.8196 18.2688 47.6898 18.2688Z" stroke="#D3D3D3"/>
<path d="M47.6898 18.2688H10.5493C10.4195 18.2688 10.3142 18.1636 10.3142 18.0338C10.3142 17.9039 10.4195 17.7987 10.5493 17.7987H47.6898C47.8196 17.7987 47.9248 17.9039 47.9248 18.0338C47.9248 18.1636 47.8196 18.2688 47.6898 18.2688Z" stroke="#D3D3D3"/>
<path d="M47.6898 18.2688H10.5493C10.4195 18.2688 10.3142 18.1636 10.3142 18.0338C10.3142 17.9039 10.4195 17.7987 10.5493 17.7987H47.6898C47.8196 17.7987 47.9248 17.9039 47.9248 18.0338C47.9248 18.1636 47.8196 18.2688 47.6898 18.2688Z" stroke="#D3D3D3"/>
<path d="M47.6898 18.2688H10.5493C10.4195 18.2688 10.3142 18.1636 10.3142 18.0338C10.3142 17.9039 10.4195 17.7987 10.5493 17.7987H47.6898C47.8196 17.7987 47.9248 17.9039 47.9248 18.0338C47.9248 18.1636 47.8196 18.2688 47.6898 18.2688Z" stroke="#D3D3D3"/>
</g>
<g filter="url(#filter2_d_54_572)">
<path d="M38.2871 23.4403H10.5493C10.4195 23.4403 10.3142 23.5455 10.3142 23.6753C10.3142 23.8052 10.4195 23.9104 10.5493 23.9104H38.2871C38.4169 23.9104 38.5222 23.8052 38.5222 23.6753C38.5222 23.5455 38.4169 23.4403 38.2871 23.4403Z" fill="#D3D3D3"/>
<path d="M38.2871 23.4403H10.5493C10.4195 23.4403 10.3142 23.5455 10.3142 23.6753C10.3142 23.8052 10.4195 23.9104 10.5493 23.9104H38.2871C38.4169 23.9104 38.5222 23.8052 38.5222 23.6753C38.5222 23.5455 38.4169 23.4403 38.2871 23.4403Z" stroke="#D3D3D3"/>
<path d="M38.2871 23.4403H10.5493C10.4195 23.4403 10.3142 23.5455 10.3142 23.6753C10.3142 23.8052 10.4195 23.9104 10.5493 23.9104H38.2871C38.4169 23.9104 38.5222 23.8052 38.5222 23.6753C38.5222 23.5455 38.4169 23.4403 38.2871 23.4403Z" stroke="#D3D3D3"/>
<path d="M38.2871 23.4403H10.5493C10.4195 23.4403 10.3142 23.5455 10.3142 23.6753C10.3142 23.8052 10.4195 23.9104 10.5493 23.9104H38.2871C38.4169 23.9104 38.5222 23.8052 38.5222 23.6753C38.5222 23.5455 38.4169 23.4403 38.2871 23.4403Z" stroke="#D3D3D3"/>
<path d="M38.2871 23.4403H10.5493C10.4195 23.4403 10.3142 23.5455 10.3142 23.6753C10.3142 23.8052 10.4195 23.9104 10.5493 23.9104H38.2871C38.4169 23.9104 38.5222 23.8052 38.5222 23.6753C38.5222 23.5455 38.4169 23.4403 38.2871 23.4403Z" stroke="#D3D3D3"/>
<path d="M38.2871 23.4403H10.5493C10.4195 23.4403 10.3142 23.5455 10.3142 23.6753C10.3142 23.8052 10.4195 23.9104 10.5493 23.9104H38.2871C38.4169 23.9104 38.5222 23.8052 38.5222 23.6753C38.5222 23.5455 38.4169 23.4403 38.2871 23.4403Z" stroke="#D3D3D3"/>
<path d="M38.2871 23.4403H10.5493C10.4195 23.4403 10.3142 23.5455 10.3142 23.6753C10.3142 23.8052 10.4195 23.9104 10.5493 23.9104H38.2871C38.4169 23.9104 38.5222 23.8052 38.5222 23.6753C38.5222 23.5455 38.4169 23.4403 38.2871 23.4403Z" stroke="#D3D3D3"/>
<path d="M38.2871 23.4403H10.5493C10.4195 23.4403 10.3142 23.5455 10.3142 23.6753C10.3142 23.8052 10.4195 23.9104 10.5493 23.9104H38.2871C38.4169 23.9104 38.5222 23.8052 38.5222 23.6753C38.5222 23.5455 38.4169 23.4403 38.2871 23.4403Z" stroke="#D3D3D3"/>
</g>
<g filter="url(#filter3_d_54_572)">
<path d="M43.9287 29.0819H10.5493C10.4195 29.0819 10.3142 29.1871 10.3142 29.3169C10.3142 29.4468 10.4195 29.552 10.5493 29.552H43.9287C44.0585 29.552 44.1638 29.4468 44.1638 29.3169C44.1638 29.1871 44.0585 29.0819 43.9287 29.0819Z" fill="#D3D3D3"/>
<path d="M43.9287 29.0819H10.5493C10.4195 29.0819 10.3142 29.1871 10.3142 29.3169C10.3142 29.4468 10.4195 29.552 10.5493 29.552H43.9287C44.0585 29.552 44.1638 29.4468 44.1638 29.3169C44.1638 29.1871 44.0585 29.0819 43.9287 29.0819Z" stroke="#D3D3D3"/>
<path d="M43.9287 29.0819H10.5493C10.4195 29.0819 10.3142 29.1871 10.3142 29.3169C10.3142 29.4468 10.4195 29.552 10.5493 29.552H43.9287C44.0585 29.552 44.1638 29.4468 44.1638 29.3169C44.1638 29.1871 44.0585 29.0819 43.9287 29.0819Z" stroke="#D3D3D3"/>
<path d="M43.9287 29.0819H10.5493C10.4195 29.0819 10.3142 29.1871 10.3142 29.3169C10.3142 29.4468 10.4195 29.552 10.5493 29.552H43.9287C44.0585 29.552 44.1638 29.4468 44.1638 29.3169C44.1638 29.1871 44.0585 29.0819 43.9287 29.0819Z" stroke="#D3D3D3"/>
<path d="M43.9287 29.0819H10.5493C10.4195 29.0819 10.3142 29.1871 10.3142 29.3169C10.3142 29.4468 10.4195 29.552 10.5493 29.552H43.9287C44.0585 29.552 44.1638 29.4468 44.1638 29.3169C44.1638 29.1871 44.0585 29.0819 43.9287 29.0819Z" stroke="#D3D3D3"/>
<path d="M43.9287 29.0819H10.5493C10.4195 29.0819 10.3142 29.1871 10.3142 29.3169C10.3142 29.4468 10.4195 29.552 10.5493 29.552H43.9287C44.0585 29.552 44.1638 29.4468 44.1638 29.3169C44.1638 29.1871 44.0585 29.0819 43.9287 29.0819Z" stroke="#D3D3D3"/>
<path d="M43.9287 29.0819H10.5493C10.4195 29.0819 10.3142 29.1871 10.3142 29.3169C10.3142 29.4468 10.4195 29.552 10.5493 29.552H43.9287C44.0585 29.552 44.1638 29.4468 44.1638 29.3169C44.1638 29.1871 44.0585 29.0819 43.9287 29.0819Z" stroke="#D3D3D3"/>
<path d="M43.9287 29.0819H10.5493C10.4195 29.0819 10.3142 29.1871 10.3142 29.3169C10.3142 29.4468 10.4195 29.552 10.5493 29.552H43.9287C44.0585 29.552 44.1638 29.4468 44.1638 29.3169C44.1638 29.1871 44.0585 29.0819 43.9287 29.0819Z" stroke="#D3D3D3"/>
</g>
<g filter="url(#filter4_d_54_572)">
<circle cx="12.1947" cy="10.2766" r="1.88053" fill="#F1F1F1"/>
</g>
<g filter="url(#filter5_d_54_572)">
<circle cx="17.8363" cy="10.2766" r="1.88053" fill="#F1F1F1"/>
</g>
<g filter="url(#filter6_d_54_572)">
<circle cx="23.4778" cy="10.2766" r="1.88053" fill="#F1F1F1"/>
</g>
<defs>
<filter id="filter0_d_54_572" x="0.4375" y="0.046051" width="61.125" height="44.9079" filterUnits="userSpaceOnUse" color-interpolation-filters="sRGB">
<feFlood flood-opacity="0" result="BackgroundImageFix"/>
<feColorMatrix in="SourceAlpha" type="matrix" values="0 0 0 0 0 0 0 0 0 0 0 0 0 0 0 0 0 0 127 0" result="hardAlpha"/>
<feOffset/>
<feGaussianBlur stdDeviation="2"/>
<feComposite in2="hardAlpha" operator="out"/>
<feColorMatrix type="matrix" values="0 0 0 0 0 0 0 0 0 0 0 0 0 0 0 0 0 0 0.25 0"/>
<feBlend mode="normal" in2="BackgroundImageFix" result="effect1_dropShadow_54_572"/>
<feBlend mode="normal" in="SourceGraphic" in2="effect1_dropShadow_54_572" result="shape"/>
</filter>
<filter id="filter1_d_54_572" x="8.81421" y="16.2987" width="40.6106" height="3.47012" filterUnits="userSpaceOnUse" color-interpolation-filters="sRGB">
<feFlood flood-opacity="0" result="BackgroundImageFix"/>
<feColorMatrix in="SourceAlpha" type="matrix" values="0 0 0 0 0 0 0 0 0 0 0 0 0 0 0 0 0 0 127 0" result="hardAlpha"/>
<feOffset/>
<feGaussianBlur stdDeviation="0.5"/>
<feComposite in2="hardAlpha" operator="out"/>
<feColorMatrix type="matrix" values="0 0 0 0 0 0 0 0 0 0 0 0 0 0 0 0 0 0 0.25 0"/>
<feBlend mode="normal" in2="BackgroundImageFix" result="effect1_dropShadow_54_572"/>
<feBlend mode="normal" in="SourceGraphic" in2="effect1_dropShadow_54_572" result="shape"/>
</filter>
<filter id="filter2_d_54_572" x="8.81421" y="21.9403" width="31.208" height="3.47012" filterUnits="userSpaceOnUse" color-interpolation-filters="sRGB">
<feFlood flood-opacity="0" result="BackgroundImageFix"/>
<feColorMatrix in="SourceAlpha" type="matrix" values="0 0 0 0 0 0 0 0 0 0 0 0 0 0 0 0 0 0 127 0" result="hardAlpha"/>
<feOffset/>
<feGaussianBlur stdDeviation="0.5"/>
<feComposite in2="hardAlpha" operator="out"/>
<feColorMatrix type="matrix" values="0 0 0 0 0 0 0 0 0 0 0 0 0 0 0 0 0 0 0.25 0"/>
<feBlend mode="normal" in2="BackgroundImageFix" result="effect1_dropShadow_54_572"/>
<feBlend mode="normal" in="SourceGraphic" in2="effect1_dropShadow_54_572" result="shape"/>
</filter>
<filter id="filter3_d_54_572" x="8.81421" y="27.5819" width="36.8496" height="3.47012" filterUnits="userSpaceOnUse" color-interpolation-filters="sRGB">
<feFlood flood-opacity="0" result="BackgroundImageFix"/>
<feColorMatrix in="SourceAlpha" type="matrix" values="0 0 0 0 0 0 0 0 0 0 0 0 0 0 0 0 0 0 127 0" result="hardAlpha"/>
<feOffset/>
<feGaussianBlur stdDeviation="0.5"/>
<feComposite in2="hardAlpha" operator="out"/>
<feColorMatrix type="matrix" values="0 0 0 0 0 0 0 0 0 0 0 0 0 0 0 0 0 0 0.25 0"/>
<feBlend mode="normal" in2="BackgroundImageFix" result="effect1_dropShadow_54_572"/>
<feBlend mode="normal" in="SourceGraphic" in2="effect1_dropShadow_54_572" result="shape"/>
</filter>
<filter id="filter4_d_54_572" x="9.31421" y="7.39604" width="5.76111" height="5.76106" filterUnits="userSpaceOnUse" color-interpolation-filters="sRGB">
<feFlood flood-opacity="0" result="BackgroundImageFix"/>
<feColorMatrix in="SourceAlpha" type="matrix" values="0 0 0 0 0 0 0 0 0 0 0 0 0 0 0 0 0 0 127 0" result="hardAlpha"/>
<feOffset/>
<feGaussianBlur stdDeviation="0.5"/>
<feComposite in2="hardAlpha" operator="out"/>
<feColorMatrix type="matrix" values="0 0 0 0 0 0 0 0 0 0 0 0 0 0 0 0 0 0 0.25 0"/>
<feBlend mode="normal" in2="BackgroundImageFix" result="effect1_dropShadow_54_572"/>
<feBlend mode="normal" in="SourceGraphic" in2="effect1_dropShadow_54_572" result="shape"/>
</filter>
<filter id="filter5_d_54_572" x="14.9558" y="7.39604" width="5.76111" height="5.76106" filterUnits="userSpaceOnUse" color-interpolation-filters="sRGB">
<feFlood flood-opacity="0" result="BackgroundImageFix"/>
<feColorMatrix in="SourceAlpha" type="matrix" values="0 0 0 0 0 0 0 0 0 0 0 0 0 0 0 0 0 0 127 0" result="hardAlpha"/>
<feOffset/>
<feGaussianBlur stdDeviation="0.5"/>
<feComposite in2="hardAlpha" operator="out"/>
<feColorMatrix type="matrix" values="0 0 0 0 0 0 0 0 0 0 0 0 0 0 0 0 0 0 0.25 0"/>
<feBlend mode="normal" in2="BackgroundImageFix" result="effect1_dropShadow_54_572"/>
<feBlend mode="normal" in="SourceGraphic" in2="effect1_dropShadow_54_572" result="shape"/>
</filter>
<filter id="filter6_d_54_572" x="20.5973" y="7.39604" width="5.76111" height="5.76106" filterUnits="userSpaceOnUse" color-interpolation-filters="sRGB">
<feFlood flood-opacity="0" result="BackgroundImageFix"/>
<feColorMatrix in="SourceAlpha" type="matrix" values="0 0 0 0 0 0 0 0 0 0 0 0 0 0 0 0 0 0 127 0" result="hardAlpha"/>
<feOffset/>
<feGaussianBlur stdDeviation="0.5"/>
<feComposite in2="hardAlpha" operator="out"/>
<feColorMatrix type="matrix" values="0 0 0 0 0 0 0 0 0 0 0 0 0 0 0 0 0 0 0.25 0"/>
<feBlend mode="normal" in2="BackgroundImageFix" result="effect1_dropShadow_54_572"/>
<feBlend mode="normal" in="SourceGraphic" in2="effect1_dropShadow_54_572" result="shape"/>
</filter>
</defs>
</svg>
