<svg width="45" height="44" viewBox="0 0 45 44" fill="none" xmlns="http://www.w3.org/2000/svg">
<g filter="url(#filter0_d_54_563)">
<path d="M42.7001 38.0245L22.0578 21.2143C21.4647 20.7313 20.5933 20.8141 20.1009 21.4003C19.6142 21.9798 19.6751 22.8406 20.2385 23.3448L40.0757 41.098C40.911 41.8455 42.1957 41.7693 42.938 40.9281C43.6974 40.0675 43.5893 38.7487 42.7001 38.0245Z" fill="#718093"/>
<path d="M42.7001 38.0245L22.0578 21.2143C21.4647 20.7313 20.5933 20.8141 20.1009 21.4003C19.6142 21.9798 19.6751 22.8406 20.2385 23.3448L40.0757 41.098C40.911 41.8455 42.1957 41.7693 42.938 40.9281C43.6974 40.0675 43.5893 38.7487 42.7001 38.0245Z" stroke="#718093"/>
</g>
<g filter="url(#filter1_d_54_563)">
<ellipse cx="19.1112" cy="19.0285" rx="17.612" ry="17.7366" fill="#718093"/>
</g>
<g filter="url(#filter2_i_54_563)">
<ellipse cx="19.1112" cy="19.0285" rx="14.2395" ry="14.3402" fill="#F1F1F1"/>
</g>
<defs>
<filter id="filter0_d_54_563" x="18.7723" y="19.9001" width="25.6718" height="22.7123" filterUnits="userSpaceOnUse" color-interpolation-filters="sRGB">
<feFlood flood-opacity="0" result="BackgroundImageFix"/>
<feColorMatrix in="SourceAlpha" type="matrix" values="0 0 0 0 0 0 0 0 0 0 0 0 0 0 0 0 0 0 127 0" result="hardAlpha"/>
<feOffset/>
<feGaussianBlur stdDeviation="0.5"/>
<feComposite in2="hardAlpha" operator="out"/>
<feColorMatrix type="matrix" values="0 0 0 0 0 0 0 0 0 0 0 0 0 0 0 0 0 0 0.25 0"/>
<feBlend mode="normal" in2="BackgroundImageFix" result="effect1_dropShadow_54_563"/>
<feBlend mode="normal" in="SourceGraphic" in2="effect1_dropShadow_54_563" result="shape"/>
</filter>
<filter id="filter1_d_54_563" x="0.499146" y="0.291885" width="37.2241" height="37.4732" filterUnits="userSpaceOnUse" color-interpolation-filters="sRGB">
<feFlood flood-opacity="0" result="BackgroundImageFix"/>
<feColorMatrix in="SourceAlpha" type="matrix" values="0 0 0 0 0 0 0 0 0 0 0 0 0 0 0 0 0 0 127 0" result="hardAlpha"/>
<feOffset/>
<feGaussianBlur stdDeviation="0.5"/>
<feComposite in2="hardAlpha" operator="out"/>
<feColorMatrix type="matrix" values="0 0 0 0 0 0 0 0 0 0 0 0 0 0 0 0 0 0 0.25 0"/>
<feBlend mode="normal" in2="BackgroundImageFix" result="effect1_dropShadow_54_563"/>
<feBlend mode="normal" in="SourceGraphic" in2="effect1_dropShadow_54_563" result="shape"/>
</filter>
<filter id="filter2_i_54_563" x="4.8717" y="4.68822" width="28.479" height="28.6805" filterUnits="userSpaceOnUse" color-interpolation-filters="sRGB">
<feFlood flood-opacity="0" result="BackgroundImageFix"/>
<feBlend mode="normal" in="SourceGraphic" in2="BackgroundImageFix" result="shape"/>
<feColorMatrix in="SourceAlpha" type="matrix" values="0 0 0 0 0 0 0 0 0 0 0 0 0 0 0 0 0 0 127 0" result="hardAlpha"/>
<feMorphology radius="1" operator="erode" in="SourceAlpha" result="effect1_innerShadow_54_563"/>
<feOffset/>
<feGaussianBlur stdDeviation="0.5"/>
<feComposite in2="hardAlpha" operator="arithmetic" k2="-1" k3="1"/>
<feColorMatrix type="matrix" values="0 0 0 0 0 0 0 0 0 0 0 0 0 0 0 0 0 0 0.25 0"/>
<feBlend mode="normal" in2="shape" result="effect1_innerShadow_54_563"/>
</filter>
</defs>
</svg>
