<svg width="333" height="239" viewBox="0 0 333 239" fill="none" xmlns="http://www.w3.org/2000/svg">
<g clip-path="url(#clip0_2_135)">
<path d="M164.189 237.99H151.397V139.967H161.801C162.305 139.967 162.788 140.166 163.145 140.519C163.502 140.873 163.704 141.354 163.707 141.855L164.189 237.99Z" fill="#CCCCCC"/>
<path d="M152.593 238.509H15.2235V168.7H152.593V238.509Z" fill="white"/>
<path d="M98.4488 238.25H15.4842V168.959H152.332V184.601C152.316 198.824 146.634 212.461 136.532 222.518C126.431 232.576 112.735 238.233 98.4488 238.25V238.25Z" fill="#F2F2F2"/>
<path d="M162.106 142.751C162.037 142.881 161.983 143.019 161.946 143.161L157.209 161.34L152.071 171.029H15.7449V168.615L23.5064 161.34L32.5607 144.097C32.9604 143.336 33.4852 142.647 34.1135 142.058C35.5471 140.715 37.4414 139.967 39.4099 139.967H160.421C160.749 139.967 161.072 140.052 161.358 140.212C161.644 140.373 161.884 140.605 162.053 140.885C162.223 141.165 162.317 141.484 162.326 141.811C162.335 142.138 162.259 142.462 162.106 142.751V142.751Z" fill="#F2F2F2"/>
<path d="M152.593 238.509H15.2235V168.7H152.593V238.509ZM16.2663 237.471H151.55V169.738H16.2663V237.471Z" fill="#E6E6E6"/>
<path d="M159.74 152.051L157.209 161.34H23.5066L27.8269 153.608L159.74 152.051Z" fill="#CCCCCC"/>
<path d="M42.1872 205.281H20.2892V206.487H42.1872V205.281Z" fill="white"/>
<path d="M42.1872 209.504H20.2892V210.71H42.1872V209.504Z" fill="white"/>
<path d="M42.1872 213.726H20.2892V214.933H42.1872V213.726Z" fill="white"/>
<path d="M28.7717 191.841C33.1219 191.841 36.6483 188.33 36.6483 183.999C36.6483 179.667 33.1219 176.156 28.7717 176.156C24.4216 176.156 20.8951 179.667 20.8951 183.999C20.8951 188.33 24.4216 191.841 28.7717 191.841Z" fill="white"/>
<path d="M115.101 156.072H108.412V104.81H113.852C114.116 104.81 114.368 104.914 114.555 105.099C114.742 105.284 114.848 105.535 114.849 105.798L115.101 156.072Z" fill="#CCCCCC"/>
<path d="M109.037 156.343H37.1991V119.836H109.037V156.343Z" fill="white"/>
<path d="M80.722 156.208H37.3354V119.972H108.901V128.152C108.892 135.59 105.921 142.721 100.638 147.981C95.3553 153.241 88.1928 156.199 80.722 156.208Z" fill="#F2F2F2"/>
<path d="M114.012 106.266C113.976 106.334 113.948 106.406 113.928 106.481L111.451 115.988L108.764 121.054H37.4717V119.792L41.5307 115.988L46.2656 106.97C46.4746 106.572 46.7491 106.212 47.0777 105.904V105.904C47.8274 105.201 48.818 104.81 49.8474 104.81H113.13C113.302 104.81 113.471 104.855 113.621 104.939C113.77 105.023 113.895 105.144 113.984 105.291C114.073 105.437 114.122 105.604 114.127 105.775C114.132 105.946 114.092 106.115 114.012 106.266V106.266Z" fill="#F2F2F2"/>
<path d="M109.037 156.343H37.1991V119.836H109.037V156.343ZM37.7444 155.8H108.492V120.379H37.7444V155.8Z" fill="#E6E6E6"/>
<path d="M112.774 111.13L111.451 115.987H41.5308L43.79 111.944L112.774 111.13Z" fill="#CCCCCC"/>
<path d="M51.2998 138.966H39.8481V139.597H51.2998V138.966Z" fill="white"/>
<path d="M51.2998 141.175H39.8481V141.806H51.2998V141.175Z" fill="white"/>
<path d="M51.2998 143.383H39.8481V144.014H51.2998V143.383Z" fill="white"/>
<path d="M44.2841 131.938C46.5591 131.938 48.4032 130.102 48.4032 127.837C48.4032 125.572 46.5591 123.736 44.2841 123.736C42.0092 123.736 40.165 125.572 40.165 127.837C40.165 130.102 42.0092 131.938 44.2841 131.938Z" fill="white"/>
<path d="M312.252 238.474L312.211 238.252C311.534 234.536 311.678 230.718 312.633 227.063C313.588 223.408 315.331 220.004 317.74 217.087C319.105 215.462 320.67 214.014 322.398 212.778L322.562 212.66L322.634 212.849C323.494 215.105 324.579 217.365 325.073 218.365L325.407 210.899L325.597 210.798C326.469 210.333 327.462 210.138 328.446 210.239C329.43 210.341 330.362 210.733 331.12 211.366C331.904 211.993 332.482 212.841 332.779 213.798C333.075 214.756 333.077 215.78 332.784 216.738C332.525 217.616 332.28 218.525 332.043 219.405C331.229 222.429 330.388 225.556 328.757 228.189C327.503 230.17 325.821 231.847 323.833 233.098C321.844 234.348 319.601 235.141 317.265 235.418L312.252 238.474Z" fill="#F2F2F2"/>
<path d="M333 238.382C333 238.463 332.984 238.544 332.953 238.619C332.922 238.694 332.876 238.762 332.819 238.82C332.761 238.877 332.693 238.923 332.617 238.953C332.542 238.984 332.461 239 332.38 239H0.620478C0.455921 239 0.298102 238.935 0.181743 238.819C0.0653842 238.703 1.52588e-05 238.546 1.52588e-05 238.382C1.52588e-05 238.218 0.0653842 238.061 0.181743 237.945C0.298102 237.83 0.455921 237.764 0.620478 237.764H332.38C332.461 237.764 332.542 237.78 332.617 237.811C332.693 237.842 332.761 237.887 332.819 237.945C332.876 238.002 332.922 238.07 332.953 238.146C332.984 238.221 333 238.301 333 238.382Z" fill="#CCCCCC"/>
<path d="M257.749 80.3213L248.253 78.9671C245.042 84.314 243.9 98.5459 243.9 98.5459L234.607 120.538C233.991 120.955 233.497 121.525 233.173 122.192C232.85 122.859 232.708 123.599 232.763 124.338C232.818 125.076 233.067 125.788 233.486 126.4C233.905 127.012 234.478 127.504 235.148 127.826C235.819 128.147 236.562 128.287 237.304 128.232C238.046 128.176 238.76 127.927 239.375 127.509C239.989 127.092 240.482 126.52 240.804 125.852C241.126 125.185 241.266 124.444 241.21 123.706L256.468 98.1072L257.749 80.3213Z" fill="#FFB8B8"/>
<path d="M256.238 54.0729C257.708 54.2995 259.109 54.8459 260.343 55.6732C261.577 56.5004 262.612 57.5882 263.375 58.8591C264.139 60.13 264.611 61.5528 264.76 63.0263C264.908 64.4998 264.728 65.9877 264.234 67.3842L262.218 73.0711C262.218 73.0711 261.121 90.1944 256.938 95.0279L244.101 93.8709C244.101 93.8709 246.448 85.2319 244.646 81.0521C243.543 78.4923 243.604 69.651 244.691 62.4589C244.895 61.1528 245.356 59.8995 246.046 58.7708C246.737 57.6422 247.645 56.6603 248.718 55.8813C249.79 55.1024 251.006 54.5417 252.297 54.2314C253.587 53.9211 254.927 53.8672 256.238 54.0729V54.0729Z" fill="#E6E6E6"/>
<path d="M287.621 231.747L281.901 231.747L279.179 209.779L287.622 209.779L287.621 231.747Z" fill="#FFB6B6"/>
<path d="M287.822 237.689L270.232 237.688V237.466C270.232 235.658 270.953 233.925 272.237 232.646C273.521 231.368 275.263 230.65 277.078 230.65H277.079L280.292 228.223L286.287 230.65L287.822 230.65L287.822 237.689Z" fill="#232331"/>
<path d="M262.752 204.522L257.468 206.702L246.502 187.449L254.301 184.229L262.752 204.522Z" fill="#FFB6B6"/>
<path d="M265.224 209.933L248.975 216.641L248.89 216.437C248.195 214.767 248.194 212.89 248.888 211.219C249.582 209.549 250.914 208.221 252.592 207.528L252.592 207.528L254.626 204.061L261.098 204.017L262.516 203.431L265.224 209.933Z" fill="#232331"/>
<path d="M294.161 106.782L253.566 111.004L248.136 129.214L229.33 159.304L250.094 197.287L257.406 190.752L250.387 160.08L271.338 137.561L275.31 135.92L278.464 219.483L290.127 219.674L295.231 127.467C297.684 119.322 296.946 112.596 294.161 106.782Z" fill="#232331"/>
<path d="M279.278 49.1341L272.614 41.664L262.086 42.8288L255.345 52.2213C251.757 53.0425 248.622 55.2017 246.584 58.2546C244.546 61.3075 243.761 65.0219 244.39 68.6336C247.006 83.6304 255.895 98.1756 252.96 105.575C248.504 116.807 248.233 121.388 258.898 119.814C269.564 118.239 305.297 114.609 298.369 107.711C291.441 100.813 289.92 89.2871 289.92 89.2871L289.642 62.9172C289.936 61.3267 289.897 59.6928 289.527 58.1182C289.156 56.5436 288.462 55.0623 287.489 53.7677C286.515 52.4731 285.283 51.3931 283.87 50.5956C282.457 49.7982 280.893 49.3006 279.278 49.1341L279.278 49.1341Z" fill="#E6E6E6"/>
<path d="M266.257 39.7525C272.711 39.7525 277.944 34.5427 277.944 28.116C277.944 21.6894 272.711 16.4796 266.257 16.4796C259.802 16.4796 254.569 21.6894 254.569 28.116C254.569 34.5427 259.802 39.7525 266.257 39.7525Z" fill="#FFB8B8"/>
<path d="M280.657 27.4251C280.135 29.7827 279.194 32.0284 277.877 34.0559C277.528 34.7472 277.006 35.3375 276.361 35.7699C276.035 35.9784 275.645 36.0664 275.261 36.0185C274.876 35.9706 274.52 35.7899 274.255 35.5078L273.971 35.2772C274.529 34.9351 275.026 34.5049 275.445 34.0035C275.652 33.7518 275.796 33.4545 275.865 33.1364C275.934 32.8182 275.925 32.4883 275.84 32.1741C275.739 31.8642 275.521 31.6054 275.233 31.4519C274.944 31.2984 274.607 31.2623 274.292 31.3511C273.608 31.6185 273.192 32.6039 272.476 32.4519C271.897 32.3261 271.776 31.5661 271.776 30.9685C271.797 27.8444 270.28 23.4046 269.106 23.5409C267.92 23.6055 266.733 23.4472 265.605 23.0744C264.477 22.701 263.286 22.5496 262.099 22.6288C262.015 22.6393 261.931 22.6551 261.841 22.6708C261.651 22.0772 261.389 21.5087 261.062 20.9777C261.099 21.6187 261.067 22.2619 260.967 22.8962C260.023 23.2837 259.047 23.5906 258.051 23.8135C256.966 23.9655 254.581 27.1944 254.471 26.8642C254.28 26.2706 254.019 25.7021 253.691 25.1711C253.728 25.8121 253.697 26.4552 253.597 27.0896C253.591 27.1158 253.591 27.1368 253.586 27.163C253.06 26.4658 252.739 25.6166 252.918 26.2666C251.154 22.2934 251.838 19.4471 254.613 16.0976C255.154 15.3774 255.869 14.8057 256.692 14.436C257.105 14.2557 257.557 14.1841 258.005 14.2282C258.453 14.2722 258.882 14.4304 259.251 14.6876C260.383 13.6546 261.771 12.9417 263.273 12.6228C264.774 12.304 266.334 12.3906 267.79 12.8739C270.681 13.8751 272.908 14.4622 273.35 17.4815C275.74 17.0988 278.199 18.4512 279.515 20.4692C280.826 22.4926 281.094 25.061 280.657 27.4251Z" fill="#232331"/>
<path d="M271.18 124.076H267.301V94.3516H270.455C270.608 94.3516 270.755 94.4118 270.863 94.5191C270.971 94.6264 271.033 94.772 271.033 94.9242L271.18 124.076Z" fill="#3F3D56"/>
<path d="M267.663 124.234H226.007V103.065H267.663V124.234Z" fill="white"/>
<path d="M251.244 124.155H226.086V103.143H267.584V107.886C267.579 112.2 265.856 116.335 262.793 119.385C259.73 122.435 255.577 124.15 251.244 124.155V124.155Z" fill="#3F4959"/>
<path d="M270.548 95.1959C270.527 95.2354 270.511 95.2771 270.5 95.3202L269.063 100.833L267.505 103.771H226.165V103.039L228.519 100.833L231.264 95.604C231.386 95.3731 231.545 95.1642 231.735 94.9857V94.9857C232.17 94.5784 232.744 94.3516 233.341 94.3516H270.037C270.136 94.3516 270.234 94.3772 270.321 94.426C270.408 94.4748 270.48 94.5451 270.532 94.63C270.583 94.715 270.612 94.8117 270.615 94.9109C270.617 95.01 270.594 95.1082 270.548 95.1959V95.1959Z" fill="#3F3D56"/>
<path d="M267.663 124.234H226.007V103.065H267.663V124.234ZM226.323 123.919H267.347V103.379H226.323V123.919Z" fill="#3F3D56"/>
<path d="M269.83 98.0157L269.063 100.833H228.519L229.829 98.4881L269.83 98.0157Z" fill="#3F4959"/>
<path d="M234.184 114.157H227.543V114.523H234.184V114.157Z" fill="white"/>
<path d="M234.184 115.438H227.543V115.804H234.184V115.438Z" fill="white"/>
<path d="M234.184 116.719H227.543V117.084H234.184V116.719Z" fill="white"/>
<path d="M230.115 110.082C231.435 110.082 232.504 109.017 232.504 107.704C232.504 106.39 231.435 105.326 230.115 105.326C228.796 105.326 227.727 106.39 227.727 107.704C227.727 109.017 228.796 110.082 230.115 110.082Z" fill="white"/>
<path d="M287.385 77.6036L277.889 76.2494C274.678 81.5963 273.536 95.8281 273.536 95.8281L264.243 117.821C263.628 118.237 263.133 118.807 262.809 119.474C262.486 120.141 262.344 120.881 262.399 121.62C262.454 122.359 262.703 123.07 263.122 123.682C263.541 124.295 264.114 124.786 264.784 125.108C265.455 125.429 266.198 125.569 266.94 125.514C267.682 125.458 268.396 125.209 269.011 124.792C269.625 124.374 270.118 123.802 270.44 123.135C270.763 122.467 270.902 121.726 270.846 120.988L286.104 95.3894L287.385 77.6036Z" fill="#FFB8B8"/>
<path d="M282.239 51.3552C283.708 51.5818 285.11 52.1282 286.344 52.9554C287.577 53.7827 288.613 54.8704 289.376 56.1414C290.139 57.4123 290.612 58.8351 290.76 60.3085C290.909 61.782 290.729 63.2699 290.234 64.6664L288.219 70.3533C288.219 70.3533 290.757 87.4766 286.574 92.3101L273.737 91.1531C273.737 91.1531 276.084 82.5142 274.282 78.3343C273.179 75.7745 273.24 66.9333 274.327 59.7411C275.158 54.2493 276.726 50.5052 282.239 51.3552Z" fill="#E6E6E6"/>
<path d="M201.604 23.0232C196.964 25.327 193.434 29.3715 191.789 34.2669C190.145 39.1623 190.521 44.5077 192.835 49.1271C197.653 58.7464 215.065 75.1522 228.957 77.631C222.981 59.5654 231.29 41.2026 227.822 31.7541C224.116 21.658 211.265 18.2258 201.604 23.0232Z" fill="#3F4959"/>
<path d="M208.116 45.9012C211.637 45.9012 214.492 43.0593 214.492 39.5536C214.492 36.0479 211.637 33.2059 208.116 33.2059C204.595 33.2059 201.741 36.0479 201.741 39.5536C201.741 43.0593 204.595 45.9012 208.116 45.9012Z" fill="white"/>
<path d="M228.835 87.8194C231.141 87.8194 233.01 85.958 233.01 83.6618C233.01 81.3657 231.141 79.5043 228.835 79.5043C226.528 79.5043 224.659 81.3657 224.659 83.6618C224.659 85.958 226.528 87.8194 228.835 87.8194Z" fill="#3F4959"/>
<path opacity="0.2" d="M210.059 32.881C210.896 32.852 211.731 32.9876 212.515 33.28C213.3 33.5724 214.019 34.0159 214.631 34.585C215.243 35.1542 215.737 35.8379 216.084 36.5971C216.431 37.3563 216.624 38.1761 216.652 39.0097C216.68 39.8432 216.544 40.6742 216.249 41.455C215.955 42.2358 215.509 42.9513 214.937 43.5604C214.365 44.1695 213.677 44.6604 212.915 45.005C212.152 45.3496 211.328 45.5412 210.491 45.5687C211.91 45.0433 213.095 44.0323 213.833 42.7167C214.572 41.401 214.816 39.8666 214.522 38.3881C214.228 36.9095 213.415 35.5834 212.229 34.647C211.043 33.7106 209.561 33.225 208.048 33.2772C208.693 33.038 209.372 32.9042 210.059 32.881V32.881Z" fill="#231F20"/>
<path opacity="0.2" d="M227.854 31.7578C231.322 41.2063 223.014 59.5691 228.989 77.6347C227.678 77.3943 226.386 77.0577 225.125 76.6276C220.256 59.1638 227.898 41.7133 224.547 32.5843C221.547 24.4137 212.559 20.6085 204.119 21.9967C213.382 18.8512 224.458 22.5057 227.854 31.7578Z" fill="#231F20"/>
<path d="M32.1494 119.42C27.3468 119.305 22.695 121.095 19.2175 124.395C15.7399 127.695 13.7215 132.235 13.6062 137.017C13.366 146.974 20.4868 167.923 30.7862 175.947C33.7544 158.573 48.5517 147.118 49.8231 137.883C51.1816 128.015 42.1505 119.659 32.1494 119.42Z" fill="#D1D3D4"/>
<path d="M30.2889 141.651C33.5515 141.651 36.1964 139.017 36.1964 135.769C36.1964 132.52 33.5515 129.887 30.2889 129.887C27.0263 129.887 24.3814 132.52 24.3814 135.769C24.3814 139.017 27.0263 141.651 30.2889 141.651Z" fill="white"/>
<path d="M28.0611 184.686C30.198 184.686 31.9303 182.962 31.9303 180.834C31.9303 178.706 30.198 176.982 28.0611 176.982C25.9241 176.982 24.1918 178.706 24.1918 180.834C24.1918 182.962 25.9241 184.686 28.0611 184.686Z" fill="#D1D3D4"/>
<path opacity="0.2" d="M34.7844 131.142C36.1932 131.824 37.2721 133.036 37.7837 134.51C38.2953 135.985 38.1977 137.601 37.5124 139.004C37.173 139.699 36.6996 140.32 36.1191 140.832C35.5386 141.345 34.8624 141.738 34.1292 141.99C32.6484 142.5 31.0249 142.402 29.6161 141.72C31.0068 141.902 32.4172 141.585 33.5947 140.826C34.7722 140.067 35.6401 138.916 36.0429 137.578C36.4457 136.24 36.3572 134.803 35.7932 133.525C35.2292 132.246 34.2265 131.209 32.9647 130.599C33.5967 130.681 34.2112 130.864 34.7844 131.142V131.142Z" fill="#231F20"/>
<path opacity="0.2" d="M49.8478 137.9C48.5764 147.135 33.7791 158.59 30.8109 175.964C29.8416 175.202 28.9302 174.369 28.0843 173.472C31.6972 157.068 45.5509 146.072 46.7793 137.15C47.8787 129.164 42.1732 122.169 34.6562 119.664C43.6122 121.085 51.0928 128.856 49.8478 137.9Z" fill="#231F20"/>
<path d="M100.87 42.7837C99.5204 42.8716 98.2583 43.4805 97.3525 44.4807C96.4467 45.481 95.9687 46.7937 96.0202 48.1395C96.035 48.4129 96.0725 48.6846 96.1323 48.9518L80.8044 58.5662L89.2785 62.2978L102.535 52.5957C103.629 52.2629 104.581 51.5791 105.243 50.6508C105.906 49.7225 106.241 48.602 106.196 47.4642C106.165 46.817 106.005 46.1823 105.727 45.5964C105.45 45.0105 105.058 44.4849 104.577 44.0495C104.095 43.614 103.531 43.2774 102.919 43.0588C102.306 42.8401 101.656 42.7438 101.006 42.7752C100.961 42.7774 100.915 42.7802 100.87 42.7837Z" fill="#FFB6B6"/>
<path d="M86.0894 54.1963L89.8882 62.0002L74.868 71.6237C73.7993 72.3144 72.5709 72.7214 71.2996 72.8062C70.0284 72.891 68.7565 72.6507 67.6047 72.1082V72.1082C66.2045 71.4409 65.0601 70.3385 64.3439 68.9672C63.6277 67.5959 63.3786 66.03 63.6342 64.5055L68.5079 36.8023C68.8351 34.8636 69.896 33.1235 71.4724 31.9399C73.0488 30.7562 75.0208 30.2189 76.9828 30.4386V30.4386C77.9385 30.5426 78.8642 30.833 79.7072 31.2933C80.5501 31.7535 81.2937 32.3746 81.8956 33.121C82.4975 33.8674 82.9458 34.7245 83.215 35.6434C83.4841 36.5623 83.5689 37.525 83.4644 38.4765C83.4561 38.5517 83.4467 38.6267 83.4361 38.7016C83.3993 38.9678 83.348 39.2318 83.2826 39.4925L77.962 59.1945L86.0894 54.1963Z" fill="#3F4959"/>
<path d="M87.1569 66.2942H65.6763V87.6813H87.1569V66.2942Z" fill="#FFB8B8"/>
<path d="M138.098 129.281L146.302 126.533L150.87 148.766L145.311 150.628L138.098 129.281Z" fill="#FFB6B6"/>
<path d="M124.194 127.572L132.331 124.635L137.418 146.756L131.904 148.746L124.194 127.572Z" fill="#FFB6B6"/>
<path d="M66.4468 93.2686C62.1414 121.846 119.475 104.951 119.475 104.951L137.451 129.641L147.976 127.736C147.976 127.736 143.24 112.914 134.783 93.0434C131.027 84.2191 88.3808 86.3753 88.3808 86.3753L87.4953 79.4562L63.0982 78.9799L66.4468 93.2686Z" fill="#232331"/>
<path d="M107.862 106.866L121.119 98.6454C130.825 117.942 133.686 126.299 133.686 126.299L124.51 128.868L107.862 106.866Z" fill="#232331"/>
<path d="M78.7181 31.5403L74.3945 26.0068L68.227 25.7406L67.6114 30.9448L64.5554 32.3479C61.504 43.8901 61.0328 55.9582 63.1749 67.7014V67.7014C63.5844 68.0853 63.8837 68.5711 64.0418 69.1086C64.1999 69.6462 64.2111 70.2159 64.0742 70.7592L63.8761 71.5456L63.8944 71.5744C64.5447 72.596 64.7653 73.8313 64.5086 75.0134V75.0134L63.0493 77.5954C62.5255 78.5239 62.2112 79.5548 62.1282 80.6166C62.0452 81.6783 62.1954 82.7452 62.5685 83.7433C62.9415 84.7413 63.5284 85.6465 64.2884 86.3958C65.0484 87.1451 65.9632 87.7206 66.9692 88.0823C75.9401 91.3198 84.3495 92.5257 90.5708 83.4409L92.527 51.7816L78.7181 31.5403Z" fill="#3F4959"/>
<path d="M74.1887 27.4763C80.4867 27.4763 85.5921 22.3931 85.5921 16.1226C85.5921 9.85208 80.4867 4.76884 74.1887 4.76884C67.8908 4.76884 62.7854 9.85208 62.7854 16.1226C62.7854 22.3931 67.8908 27.4763 74.1887 27.4763Z" fill="#FFB8B8"/>
<path d="M68.4641 2.43581C63.6358 2.52817 59.8063 6.98732 59.9106 12.3956C56.3376 16.1077 55.472 34.3658 58.4575 39.223C63.919 39.8542 67.2409 26.4012 72.0305 28.346L72.6615 25.4101L74.0917 29.2334C75.3089 29.7921 76.5169 30.4053 77.7158 31.0732C78.5772 27.1388 78.3636 23.3144 76.0481 19.9833C73.991 17.024 78.9971 13.5107 82.5772 14.0073L82.5248 11.2893L83.424 13.9911C84.8196 15.0121 86.3633 14.6425 87.9464 13.9046C90.5134 0.621099 70.6388 -3.01151 68.4641 2.43581Z" fill="#232331"/>
<path d="M142.784 154.388L146.439 153.913L146.641 150.392L148.763 153.611L158.457 152.35C158.921 152.289 159.354 152.083 159.693 151.76C160.031 151.437 160.257 151.015 160.337 150.555C160.417 150.096 160.348 149.622 160.139 149.205C159.93 148.787 159.593 148.447 159.176 148.234L150.736 143.917L150.281 140.444L142.202 141.987L142.784 154.388Z" fill="#232331"/>
<path d="M133.131 154.42L136.446 152.817L135.518 149.414L138.554 151.798L147.349 147.546C147.77 147.342 148.115 147.01 148.333 146.597C148.552 146.184 148.632 145.712 148.562 145.251C148.492 144.79 148.275 144.363 147.944 144.032C147.614 143.702 147.185 143.486 146.722 143.415L137.344 141.981L135.807 138.83L128.634 142.84L133.131 154.42Z" fill="#232331"/>
<path d="M83.0754 78.7079H87.1413V47.5512H83.8346C83.6745 47.5512 83.5208 47.6144 83.4073 47.7268C83.2938 47.8393 83.2296 47.992 83.2288 48.1515L83.0754 78.7079Z" fill="#CCCCCC"/>
<path d="M86.7613 56.684H130.424V78.8728H86.7613V56.684Z" fill="white"/>
<path d="M86.8442 61.738V56.7665H130.341V78.7903H103.971C99.4303 78.7852 95.077 76.987 91.8662 73.7902C88.6554 70.5934 86.8493 66.259 86.8442 61.738Z" fill="#F2F2F2"/>
<path d="M83.7377 48.4363C83.7596 48.4776 83.7766 48.5213 83.7884 48.5666L85.294 54.3447L86.9271 57.4241H130.258V56.6572L127.791 54.3448L124.914 48.864C124.787 48.622 124.62 48.403 124.42 48.2159V48.2159C123.964 47.789 123.362 47.5513 122.737 47.5513H84.2733C84.1689 47.5513 84.0663 47.5781 83.9754 47.6293C83.8844 47.6804 83.8083 47.7541 83.7544 47.8431C83.7005 47.9322 83.6707 48.0336 83.6677 48.1375C83.6648 48.2414 83.6889 48.3443 83.7377 48.4363Z" fill="#F2F2F2"/>
<path d="M86.7613 56.684H130.424V78.8728H86.7613V56.684ZM130.093 78.5428H87.0928V57.014H130.093L130.093 78.5428Z" fill="#E6E6E6"/>
<path d="M84.4896 51.3919L85.2941 54.3447H127.792L126.418 51.8872L84.4896 51.3919Z" fill="#CCCCCC"/>
<path d="M128.814 68.3112H121.854V68.6947H128.814V68.3112Z" fill="white"/>
<path d="M128.814 69.6535H121.854V70.0369H128.814V69.6535Z" fill="white"/>
<path d="M128.814 70.9957H121.854V71.3792H128.814V70.9957Z" fill="white"/>
<path d="M126.118 64.0394C127.501 64.0394 128.622 62.9234 128.622 61.5467C128.622 60.17 127.501 59.054 126.118 59.054C124.735 59.054 123.614 60.17 123.614 61.5467C123.614 62.9234 124.735 64.0394 126.118 64.0394Z" fill="white"/>
<path d="M105.922 23.8825C108.864 23.8122 111.715 24.9087 113.846 26.9307C115.976 28.9528 117.213 31.7348 117.284 34.6648C117.431 40.7662 113.068 53.6027 106.757 58.5193C104.938 47.8731 95.8712 40.8541 95.0921 35.1954C94.2597 29.1487 99.7935 24.029 105.922 23.8825Z" fill="#D1D3D4"/>
<path d="M107.062 37.5041C109.061 37.5041 110.681 35.8906 110.681 33.9001C110.681 31.9097 109.061 30.2961 107.062 30.2961C105.062 30.2961 103.442 31.9097 103.442 33.9001C103.442 35.8906 105.062 37.5041 107.062 37.5041Z" fill="white"/>
<path d="M108.427 63.8741C109.736 63.8741 110.798 62.8173 110.798 61.5136C110.798 60.2099 109.736 59.153 108.427 59.153C107.117 59.153 106.056 60.2099 106.056 61.5136C106.056 62.8173 107.117 63.8741 108.427 63.8741Z" fill="#D1D3D4"/>
<path opacity="0.2" d="M104.307 31.0651C103.88 31.2721 103.497 31.561 103.182 31.9151C102.867 32.2692 102.624 32.6818 102.469 33.1291C102.314 33.5764 102.249 34.0498 102.277 34.5222C102.306 34.9946 102.428 35.4569 102.635 35.8824C102.843 36.308 103.134 36.6887 103.489 37.0026C103.845 37.3166 104.259 37.5578 104.709 37.7123C105.158 37.8668 105.633 37.9318 106.108 37.9034C106.582 37.8749 107.046 37.7538 107.474 37.5467C106.622 37.6581 105.758 37.464 105.036 36.9989C104.315 36.5339 103.783 35.8284 103.536 35.0087C103.289 34.189 103.343 33.3086 103.689 32.5251C104.034 31.7415 104.649 31.106 105.422 30.7323C105.035 30.7826 104.658 30.895 104.307 31.0651V31.0651Z" fill="#231F20"/>
<path opacity="0.2" d="M95.077 35.2057C95.8561 40.8645 104.923 47.8835 106.742 58.5297C107.336 58.0624 107.894 57.552 108.412 57.0027C106.199 46.9511 97.7099 40.2136 96.9572 34.7462C96.2835 29.8528 99.7796 25.5669 104.386 24.0323C98.8978 24.9026 94.3142 29.6646 95.077 35.2057Z" fill="#231F20"/>
<path d="M99.4733 53.8519C98.1243 53.7524 96.7896 54.181 95.7531 55.0464C94.7167 55.9117 94.0603 57.1457 93.9236 58.4855C93.9001 58.7583 93.8993 59.0326 93.9213 59.3055L77.4014 66.7083L85.2731 71.575L99.7539 63.799C100.883 63.6207 101.922 63.0751 102.707 62.2473C103.493 61.4196 103.981 60.3563 104.095 59.2233C104.214 57.9201 103.809 56.6231 102.967 55.6177C102.126 54.6124 100.918 53.9809 99.609 53.8623C99.5638 53.8582 99.5186 53.8548 99.4733 53.8519Z" fill="#FFB6B6"/>
<path d="M83.2444 63.1112L85.9184 71.3646L69.7019 78.8189C68.5472 79.3551 67.274 79.5885 66.0032 79.4967C64.7324 79.405 63.5063 78.9912 62.4414 78.2948V78.2948C61.1477 77.4404 60.1681 76.1905 59.65 74.7335C59.132 73.2765 59.1037 71.6913 59.5693 70.2169L68.2583 43.4555C68.8527 41.5809 70.1459 40.0043 71.872 39.0499C73.5982 38.0956 75.626 37.836 77.5384 38.3247C78.4704 38.5599 79.3466 38.9755 80.1172 39.5478C80.8878 40.1201 81.5377 40.8379 82.0297 41.6602C82.5216 42.4826 82.8461 43.3933 82.9846 44.3405C83.123 45.2877 83.0727 46.2528 82.8366 47.1807C82.8179 47.254 82.7981 47.327 82.7772 47.3997C82.7036 47.6582 82.616 47.9126 82.5149 48.1618L74.4989 66.9376L83.2444 63.1112Z" fill="#3F4959"/>
</g>
<defs>
<clipPath id="clip0_2_135">
<rect width="333" height="239" fill="white"/>
</clipPath>
</defs>
</svg>
