<svg width="347" height="291" viewBox="0 0 347 291" fill="none" xmlns="http://www.w3.org/2000/svg">
<g clip-path="url(#clip0_1_28)" filter="url(#filter0_d_1_28)">
<path d="M143.683 66.5943H142.144V24.4133C142.144 21.2073 141.513 18.0326 140.286 15.0707C139.06 12.1087 137.262 9.41743 134.996 7.15044C132.73 4.88346 130.04 3.08519 127.079 1.85831C124.118 0.631436 120.944 -2.52888e-05 117.739 -1.52587e-05H28.4047C25.1998 -2.52888e-05 22.0263 0.631436 19.0654 1.85831C16.1045 3.08519 13.4142 4.88346 11.148 7.15045C8.88178 9.41743 7.08414 12.1087 5.85769 15.0707C4.63124 18.0327 3.99999 21.2073 4 24.4133V255.822C4 259.028 4.63124 262.202 5.85769 265.164C7.08414 268.126 8.88178 270.818 11.148 273.085C13.4142 275.352 16.1045 277.15 19.0654 278.377C22.0263 279.604 25.1998 280.235 28.4047 280.235H117.739C120.944 280.235 124.118 279.604 127.079 278.377C130.04 277.15 132.73 275.352 134.996 273.085C137.262 270.818 139.06 268.126 140.286 265.164C141.513 262.202 142.144 259.028 142.144 255.822V96.6195H143.683V66.5943Z" fill="#9D9D9D"/>
<path d="M118.724 6.35149H107.063C107.599 7.6667 107.804 9.09366 107.659 10.5067C107.514 11.9197 107.024 13.2753 106.232 14.4542C105.44 15.6332 104.37 16.5991 103.117 17.2671C101.864 17.935 100.466 18.2845 99.0462 18.2846H47.8675C46.4476 18.2845 45.0495 17.935 43.7964 17.2671C42.5432 16.5991 41.4736 15.6332 40.6816 14.4542C39.8895 13.2753 39.3995 11.9197 39.2546 10.5067C39.1097 9.09366 39.3144 7.6667 39.8507 6.35149H28.9592C26.5658 6.35148 24.1959 6.82305 21.9847 7.73927C19.7736 8.65549 17.7644 9.99841 16.0721 11.6914C14.3797 13.3843 13.0373 15.3941 12.1214 17.6061C11.2055 19.818 10.734 22.1888 10.734 24.583V255.652C10.734 258.046 11.2055 260.417 12.1214 262.629C13.0372 264.841 14.3797 266.851 16.0721 268.544C17.7644 270.237 19.7735 271.58 21.9847 272.496C24.1959 273.412 26.5658 273.884 28.9592 273.884H118.724C121.117 273.884 123.487 273.412 125.699 272.496C127.91 271.58 129.919 270.237 131.611 268.544C133.304 266.851 134.646 264.841 135.562 262.629C136.478 260.417 136.949 258.046 136.949 255.652V24.583C136.949 22.1888 136.478 19.818 135.562 17.6061C134.646 15.3941 133.304 13.3843 131.611 11.6914C129.919 9.99841 127.91 8.65549 125.699 7.73927C123.487 6.82305 121.117 6.35148 118.724 6.35149V6.35149Z" fill="#F7F7F7"/>
<path d="M47.3952 53.3253H42.0356C41.8472 53.3253 41.6664 53.4002 41.5332 53.5335C41.3999 53.6668 41.325 53.8476 41.325 54.0361V56.3894C41.325 56.578 41.3999 56.7588 41.5332 56.8921C41.6664 57.0254 41.8472 57.1003 42.0356 57.1003H42.9238V60.6263H46.507V57.1003H47.3952C47.5837 57.1003 47.7644 57.0254 47.8977 56.8921C48.0309 56.7588 48.1058 56.578 48.1058 56.3894V54.0361C48.1058 53.8476 48.0309 53.6668 47.8977 53.5335C47.7644 53.4002 47.5837 53.3253 47.3952 53.3253V53.3253Z" fill="#9D9D9D"/>
<path d="M52.7634 74.8628C49.481 70.0581 47.803 64.3374 47.9698 58.5203C47.9727 58.3861 47.9292 58.255 47.8465 58.1492C47.7638 58.0435 47.6471 57.9696 47.5161 57.9402V56.9233H41.8557V57.926H41.7777C41.6237 57.9262 41.476 57.9877 41.3672 58.0968C41.2585 58.2059 41.1975 58.3537 41.1977 58.5078C41.1977 58.5219 41.1982 58.536 41.1993 58.5501C41.6452 64.7686 40.1394 70.3451 36.6818 75.2799C36.4828 75.5634 36.3812 75.9039 36.3921 76.2502L37.011 95.4026C37.0259 95.8298 37.2051 96.2347 37.5113 96.5329C37.8175 96.831 38.227 96.9994 38.6542 97.0028H51.4573C51.8895 96.9993 52.3032 96.8271 52.6103 96.5229C52.9174 96.2187 53.0937 95.8066 53.1015 95.3744L53.34 76.779C53.3471 76.0965 53.1459 75.428 52.7634 74.8628Z" fill="#9D9D9D"/>
<path d="M50.7367 81.2246H39.5926C39.4276 81.2246 39.2646 81.2603 39.1147 81.3292C38.9649 81.3981 38.8316 81.4987 38.7242 81.6239C38.6168 81.7492 38.5377 81.8962 38.4924 82.0548C38.4471 82.2135 38.4367 82.3801 38.4618 82.5432L40.1458 93.4933H49.8157L51.8612 82.5801C51.8922 82.4148 51.8864 82.2447 51.8442 82.0819C51.802 81.9191 51.7245 81.7676 51.6171 81.6382C51.5097 81.5088 51.3752 81.4047 51.223 81.3332C51.0708 81.2617 50.9048 81.2246 50.7367 81.2246V81.2246Z" fill="#F7F7F7"/>
<path d="M107.058 110.699H101.698C101.51 110.699 101.329 110.773 101.196 110.907C101.062 111.04 100.988 111.221 100.988 111.409V113.763C100.988 113.951 101.062 114.132 101.196 114.265C101.329 114.399 101.51 114.474 101.698 114.474H102.586V118H106.17V114.474H107.058C107.246 114.474 107.427 114.399 107.56 114.265C107.694 114.132 107.768 113.951 107.768 113.763V111.409C107.768 111.221 107.693 111.04 107.56 110.907C107.427 110.773 107.246 110.699 107.058 110.699Z" fill="#9D9D9D"/>
<path d="M112.426 132.236C109.144 127.431 107.466 121.711 107.632 115.894C107.635 115.759 107.592 115.628 107.509 115.523C107.426 115.417 107.31 115.343 107.179 115.313V114.297H101.518V115.299H101.44C101.364 115.299 101.289 115.315 101.218 115.344C101.148 115.373 101.084 115.416 101.03 115.47C100.976 115.524 100.933 115.588 100.904 115.659C100.875 115.729 100.86 115.805 100.86 115.881C100.86 115.895 100.861 115.909 100.862 115.923C101.308 122.142 99.8019 127.718 96.3444 132.653C96.1454 132.937 96.0437 133.277 96.0547 133.624L96.6736 152.776C96.6885 153.203 96.8677 153.608 97.1739 153.906C97.4801 154.204 97.8895 154.373 98.3168 154.376H111.12C111.552 154.373 111.966 154.2 112.273 153.896C112.58 153.592 112.756 153.18 112.764 152.748L113.003 134.152C113.01 133.47 112.809 132.801 112.426 132.236V132.236Z" fill="#9D9D9D"/>
<path d="M110.399 138.598H99.2552C99.0902 138.598 98.9272 138.634 98.7773 138.703C98.6274 138.771 98.4942 138.872 98.3868 138.997C98.2794 139.122 98.2003 139.269 98.155 139.428C98.1097 139.587 98.0993 139.753 98.1244 139.916L99.8084 150.867H109.478L111.524 139.953C111.555 139.788 111.549 139.618 111.507 139.455C111.465 139.292 111.387 139.141 111.28 139.012C111.172 138.882 111.038 138.778 110.886 138.706C110.733 138.635 110.567 138.598 110.399 138.598H110.399Z" fill="#F7F7F7"/>
<path d="M39.8603 191.808H37.318C37.2286 191.808 37.1429 191.843 37.0797 191.906C37.0165 191.97 36.981 192.055 36.981 192.145V193.261C36.981 193.35 37.0165 193.436 37.0797 193.499C37.1429 193.563 37.2286 193.598 37.318 193.598H37.7393V195.271H39.439V193.598H39.8603C39.9497 193.598 40.0354 193.563 40.0987 193.499C40.1619 193.436 40.1974 193.35 40.1974 193.261V192.145C40.1974 192.055 40.1619 191.97 40.0987 191.906C40.0354 191.843 39.9497 191.808 39.8603 191.808Z" fill="#9D9D9D"/>
<path d="M42.4067 202.024C40.8497 199.745 40.0538 197.031 40.1329 194.272C40.1343 194.208 40.1136 194.146 40.0744 194.096C40.0352 194.046 39.9798 194.011 39.9177 193.997V193.514H37.2327V193.99H37.1957C37.1595 193.99 37.1237 193.997 37.0903 194.011C37.0569 194.025 37.0265 194.045 37.001 194.071C36.9754 194.097 36.9552 194.127 36.9414 194.16C36.9276 194.194 36.9205 194.23 36.9205 194.266C36.9205 194.273 36.9208 194.279 36.9213 194.286C37.1691 197.102 36.4098 199.914 34.7785 202.222C34.6841 202.356 34.6359 202.518 34.641 202.682L34.9346 211.767C34.9417 211.969 35.0267 212.161 35.1719 212.303C35.3172 212.444 35.5114 212.524 35.7141 212.526H41.7871C41.9921 212.524 42.1884 212.442 42.3341 212.298C42.4798 212.154 42.5634 211.958 42.5671 211.753L42.6802 202.933C42.6836 202.609 42.5882 202.292 42.4067 202.024V202.024Z" fill="#9D9D9D"/>
<path d="M41.5327 205.363H35.738V208.262H41.5327V205.363Z" fill="#F7F7F7"/>
<path d="M51.6948 191.808H49.1525C49.0631 191.808 48.9774 191.843 48.9141 191.906C48.8509 191.97 48.8154 192.055 48.8154 192.145V193.261C48.8154 193.35 48.8509 193.436 48.9141 193.499C48.9774 193.563 49.0631 193.598 49.1525 193.598H49.5738V195.271H51.2735V193.598H51.6948C51.7842 193.598 51.8699 193.563 51.9331 193.499C51.9963 193.436 52.0318 193.35 52.0318 193.261V192.145C52.0318 192.055 51.9963 191.97 51.9331 191.906C51.8699 191.843 51.7842 191.808 51.6948 191.808Z" fill="#9D9D9D"/>
<path d="M54.2412 202.024C52.6842 199.745 51.8882 197.031 51.9673 194.272C51.9687 194.208 51.9481 194.146 51.9089 194.096C51.8696 194.046 51.8143 194.011 51.7522 193.997V193.514H49.0672V193.99H49.0302C48.994 193.99 48.9582 193.997 48.9248 194.011C48.8913 194.025 48.861 194.045 48.8355 194.071C48.8099 194.097 48.7896 194.127 48.7758 194.16C48.762 194.194 48.755 194.23 48.755 194.266C48.755 194.273 48.7553 194.279 48.7558 194.286C49.0036 197.102 48.2442 199.914 46.6129 202.222C46.5186 202.356 46.4703 202.518 46.4755 202.682L46.7691 211.767C46.7761 211.969 46.8612 212.161 47.0064 212.303C47.1516 212.444 47.3459 212.524 47.5485 212.526H53.6216C53.8266 212.524 54.0229 212.442 54.1685 212.298C54.3142 212.154 54.3978 211.958 54.4015 211.753L54.5147 202.933C54.518 202.609 54.4226 202.292 54.2412 202.024Z" fill="#9D9D9D"/>
<path d="M53.3671 205.363H47.5724V208.262H53.3671V205.363Z" fill="#F7F7F7"/>
<path d="M63.5292 191.808H60.987C60.8976 191.808 60.8118 191.843 60.7486 191.906C60.6854 191.97 60.6499 192.055 60.6499 192.145V193.261C60.6499 193.35 60.6854 193.436 60.7486 193.499C60.8118 193.563 60.8976 193.598 60.987 193.598H61.4082V195.271H63.1079V193.598H63.5292C63.6186 193.598 63.7044 193.563 63.7676 193.499C63.8308 193.436 63.8663 193.35 63.8663 193.261V192.145C63.8663 192.055 63.8308 191.97 63.7676 191.906C63.7044 191.843 63.6186 191.808 63.5292 191.808Z" fill="#9D9D9D"/>
<path d="M66.0756 202.024C64.5187 199.745 63.7227 197.031 63.8018 194.272C63.8032 194.208 63.7825 194.146 63.7433 194.096C63.7041 194.046 63.6487 194.011 63.5866 193.997V193.514H60.9016V193.99H60.8646C60.8284 193.99 60.7926 193.997 60.7592 194.011C60.7258 194.025 60.6955 194.045 60.6699 194.071C60.6444 194.097 60.6241 194.127 60.6103 194.16C60.5965 194.194 60.5894 194.23 60.5895 194.266C60.5895 194.273 60.5897 194.279 60.5902 194.286C60.8381 197.102 60.0787 199.914 58.4474 202.222C58.353 202.356 58.3048 202.518 58.31 202.682L58.6035 211.767C58.6106 211.969 58.6956 212.161 58.8409 212.303C58.9861 212.444 59.1803 212.524 59.383 212.526H65.4561C65.6611 212.524 65.8573 212.442 66.003 212.298C66.1487 212.154 66.2323 211.958 66.236 211.753L66.3491 202.933C66.3525 202.609 66.2571 202.292 66.0756 202.024Z" fill="#9D9D9D"/>
<path d="M65.2016 205.363H59.4069V208.262H65.2016V205.363Z" fill="#F7F7F7"/>
<path d="M97.747 169.612H92.3874C92.2941 169.612 92.2017 169.63 92.1155 169.666C92.0292 169.702 91.9509 169.754 91.8849 169.82C91.8189 169.886 91.7666 169.965 91.7309 170.051C91.6952 170.137 91.6768 170.23 91.6768 170.323V172.676C91.6768 172.865 91.7517 173.046 91.8849 173.179C92.0182 173.312 92.1989 173.387 92.3874 173.387H93.2755V176.913H96.8588V173.387H97.747C97.9354 173.387 98.1162 173.312 98.2494 173.179C98.3827 173.046 98.4575 172.865 98.4575 172.676V170.323C98.4575 170.23 98.4392 170.137 98.4034 170.051C98.3677 169.965 98.3154 169.886 98.2494 169.82C98.1834 169.754 98.1051 169.702 98.0189 169.666C97.9327 169.63 97.8403 169.612 97.747 169.612V169.612Z" fill="#9D9D9D"/>
<path d="M103.115 191.15C99.8328 186.345 98.1548 180.624 98.3215 174.807C98.3245 174.673 98.2809 174.542 98.1983 174.436C98.1156 174.33 97.9989 174.256 97.8679 174.227V173.21H92.2075V174.213H92.1295C92.0532 174.213 91.9777 174.228 91.9073 174.257C91.8368 174.287 91.7729 174.33 91.719 174.384C91.6651 174.438 91.6224 174.502 91.5933 174.572C91.5642 174.643 91.5493 174.718 91.5494 174.795C91.5494 174.809 91.55 174.823 91.551 174.837C91.997 181.055 90.4911 186.632 87.0335 191.567C86.8346 191.85 86.7329 192.191 86.7438 192.537L87.3628 211.689C87.3777 212.117 87.5569 212.522 87.8631 212.82C88.1692 213.118 88.5787 213.286 89.006 213.29H101.809C102.241 213.286 102.655 213.114 102.962 212.81C103.269 212.506 103.445 212.093 103.453 211.661L103.692 193.066C103.699 192.383 103.498 191.715 103.115 191.15Z" fill="#9D9D9D"/>
<path d="M101.088 197.511H89.9443C89.7794 197.511 89.6164 197.547 89.4665 197.616C89.3166 197.685 89.1834 197.785 89.076 197.911C88.9686 198.036 88.8895 198.183 88.8442 198.342C88.7989 198.5 88.7884 198.667 88.8135 198.83L90.4975 209.78H100.167L102.213 198.867C102.244 198.702 102.238 198.532 102.196 198.369C102.154 198.206 102.076 198.054 101.969 197.925C101.861 197.796 101.727 197.691 101.575 197.62C101.423 197.548 101.257 197.511 101.088 197.511V197.511Z" fill="#F7F7F7"/>
<path d="M100.673 99.4684H68.7246C70.9582 87.3879 70.4443 72.8002 68.7246 57.1123H100.673C98.9989 72.8003 98.4987 87.3879 100.673 99.4684Z" fill="#9D9D9D"/>
<path d="M84.8912 84.8363C89.1429 84.8363 92.5896 81.3884 92.5896 77.1351C92.5896 72.8819 89.1429 69.434 84.8912 69.434C80.6395 69.434 77.1928 72.8819 77.1928 77.1351C77.1928 81.3884 80.6395 84.8363 84.8912 84.8363Z" fill="#F7F7F7"/>
<path d="M71.419 155.687H39.4707C41.7043 143.606 41.1904 129.018 39.4707 113.33H71.419C69.745 129.018 69.2448 143.606 71.419 155.687Z" fill="#9D9D9D"/>
<path d="M55.6373 141.054C59.889 141.054 63.3357 137.606 63.3357 133.353C63.3357 129.1 59.889 125.652 55.6373 125.652C51.3856 125.652 47.9389 129.1 47.9389 133.353C47.9389 137.606 51.3856 141.054 55.6373 141.054Z" fill="#F7F7F7"/>
<path d="M118.764 102.164H86.8158C89.0494 90.0833 88.5356 75.4956 86.8158 59.8076H118.764C117.09 75.4957 116.59 90.0833 118.764 102.164Z" fill="#9D9D9D"/>
<path d="M102.982 87.5317C107.234 87.5317 110.681 84.0837 110.681 79.8305C110.681 75.5773 107.234 72.1294 102.982 72.1294C98.7307 72.1294 95.284 75.5773 95.284 79.8305C95.284 84.0837 98.7307 87.5317 102.982 87.5317Z" fill="#F7F7F7"/>
<path d="M118.764 100.238H86.8158C89.0494 88.158 88.5356 73.5704 86.8158 57.8824H118.764C117.09 73.5704 116.59 88.158 118.764 100.238Z" fill="#9D9D9D"/>
<path d="M102.982 85.6064C107.234 85.6064 110.681 82.1585 110.681 77.9053C110.681 73.6521 107.234 70.2042 102.982 70.2042C98.7307 70.2042 95.284 73.6521 95.284 77.9053C95.284 82.1585 98.7307 85.6064 102.982 85.6064Z" fill="#F7F7F7"/>
<path d="M118.764 102.164H86.8158C89.0494 90.0833 88.5356 75.4956 86.8158 59.8076H118.764C117.09 75.4957 116.59 90.0833 118.764 102.164Z" fill="#9D9D9D"/>
<path d="M102.982 87.5317C107.234 87.5317 110.681 84.0837 110.681 79.8305C110.681 75.5773 107.234 72.1294 102.982 72.1294C98.7307 72.1294 95.284 75.5773 95.284 79.8305C95.284 84.0837 98.7307 87.5317 102.982 87.5317Z" fill="#F7F7F7"/>
<path d="M126.078 97.158H21.3794V108.71H126.078V97.158Z" fill="#9D9D9D"/>
<path d="M126.078 154.531H21.3794V166.083H126.078V154.531Z" fill="#9D9D9D"/>
<path d="M126.078 211.905H21.3794V223.456H126.078V211.905Z" fill="#9D9D9D"/>
<path d="M308.205 258.769L282.121 240.314C290.918 231.742 298.919 219.535 306.571 205.733L332.655 224.189C322.232 236.03 313.403 247.65 308.205 258.769Z" fill="#3F4959"/>
<path d="M308.212 239.12C312.463 239.12 315.91 235.673 315.91 231.419C315.91 227.166 312.463 223.718 308.212 223.718C303.96 223.718 300.513 227.166 300.513 231.419C300.513 235.673 303.96 239.12 308.212 239.12Z" fill="#F7F7F7"/>
<path d="M182.381 174.554H179.517C179.417 174.554 179.32 174.594 179.249 174.665C179.178 174.737 179.138 174.833 179.138 174.934V176.191C179.138 176.241 179.148 176.29 179.167 176.336C179.186 176.383 179.214 176.424 179.249 176.46C179.284 176.495 179.326 176.523 179.372 176.542C179.418 176.561 179.468 176.571 179.517 176.571H179.992V178.455H181.906V176.571H182.381C182.481 176.571 182.578 176.531 182.649 176.46C182.72 176.388 182.76 176.292 182.76 176.191V174.934C182.76 174.833 182.72 174.737 182.649 174.665C182.578 174.594 182.481 174.554 182.381 174.554V174.554Z" fill="#9D9D9D"/>
<path d="M185.248 186.06C183.495 183.493 182.598 180.437 182.688 177.329C182.689 177.258 182.666 177.188 182.622 177.131C182.578 177.075 182.515 177.035 182.445 177.02V176.476H179.421V177.012H179.38C179.339 177.012 179.299 177.02 179.261 177.036C179.223 177.051 179.189 177.074 179.16 177.103C179.132 177.132 179.109 177.166 179.093 177.204C179.078 177.242 179.07 177.282 179.07 177.323C179.07 177.33 179.07 177.338 179.071 177.345C179.35 180.516 178.495 183.684 176.657 186.283C176.551 186.434 176.497 186.616 176.503 186.801L176.833 197.033C176.841 197.261 176.937 197.477 177.1 197.636C177.264 197.796 177.483 197.886 177.711 197.887H184.551C184.781 197.885 185.002 197.793 185.167 197.631C185.331 197.469 185.425 197.248 185.429 197.017L185.556 187.084C185.56 186.719 185.453 186.362 185.248 186.06V186.06Z" fill="#3F4959"/>
<path opacity="0.2" d="M181.784 174.964C181.784 175.181 181.697 175.39 181.544 175.543C181.39 175.697 181.182 175.783 180.965 175.783C180.748 175.783 180.539 175.697 180.386 175.543C180.232 175.39 180.146 175.181 180.146 174.964" fill="black"/>
<path d="M183.916 188.031H178.142V191.882H183.916V188.031Z" fill="#F7F7F7"/>
<path d="M272.987 214.524H267.627C267.439 214.524 267.258 214.599 267.125 214.733C266.991 214.866 266.917 215.047 266.917 215.235V217.589C266.917 217.777 266.991 217.958 267.125 218.091C267.258 218.224 267.439 218.299 267.627 218.299H268.515V221.825H272.099V218.299H272.987C273.175 218.299 273.356 218.224 273.489 218.091C273.622 217.958 273.697 217.777 273.697 217.589V215.235C273.697 215.047 273.622 214.866 273.489 214.733C273.356 214.599 273.175 214.524 272.987 214.524V214.524Z" fill="#9D9D9D"/>
<path d="M278.355 236.062C275.073 231.257 273.395 225.537 273.561 219.719C273.564 219.585 273.521 219.454 273.438 219.348C273.355 219.243 273.239 219.169 273.108 219.139V218.122H267.447V219.125H267.369C267.293 219.125 267.217 219.14 267.147 219.17C267.077 219.199 267.013 219.242 266.959 219.296C266.905 219.35 266.862 219.414 266.833 219.485C266.804 219.555 266.789 219.631 266.789 219.707C266.789 219.721 266.79 219.735 266.791 219.749C267.237 225.968 265.731 231.544 262.273 236.479C262.074 236.763 261.973 237.103 261.984 237.449L262.603 256.602C262.617 257.029 262.797 257.434 263.103 257.732C263.409 258.03 263.818 258.198 264.246 258.202H277.049C277.481 258.198 277.895 258.026 278.202 257.722C278.509 257.418 278.685 257.006 278.693 256.573L278.932 237.978C278.939 237.296 278.737 236.627 278.355 236.062V236.062Z" fill="#3F4959"/>
<path opacity="0.2" d="M271.869 215.291C271.869 215.698 271.708 216.088 271.42 216.376C271.133 216.663 270.743 216.825 270.336 216.825C269.93 216.825 269.54 216.663 269.252 216.376C268.965 216.088 268.803 215.698 268.803 215.291" fill="black"/>
<path d="M276.328 242.424H265.184C265.019 242.424 264.856 242.459 264.706 242.528C264.556 242.597 264.423 242.698 264.316 242.823C264.208 242.948 264.129 243.095 264.084 243.254C264.039 243.413 264.028 243.579 264.053 243.742L265.737 254.692H275.407L277.453 243.779C277.484 243.614 277.478 243.444 277.436 243.281C277.394 243.118 277.316 242.967 277.209 242.837C277.101 242.708 276.967 242.604 276.815 242.532C276.662 242.461 276.496 242.424 276.328 242.424V242.424Z" fill="#F7F7F7"/>
<path d="M257.695 258.739H225.747C227.98 246.659 227.466 232.071 225.747 216.383H257.695C256.021 232.071 255.521 246.659 257.695 258.739Z" fill="#3F4959"/>
<path d="M241.913 244.107C246.165 244.107 249.612 240.659 249.612 236.406C249.612 232.153 246.165 228.705 241.913 228.705C237.662 228.705 234.215 232.153 234.215 236.406C234.215 240.659 237.662 244.107 241.913 244.107Z" fill="#F7F7F7"/>
<path d="M127.018 125.438L134.191 124.786L138.755 113.698L130.605 109.132L127.018 125.438Z" fill="#FFB8B8"/>
<path d="M192.84 155.878C193.078 155.283 193.172 154.64 193.113 154.002C193.055 153.363 192.845 152.748 192.502 152.207C192.159 151.665 191.692 151.213 191.14 150.888C190.588 150.562 189.967 150.373 189.327 150.334L178.191 149.67L176.552 155.124L188.015 158.274C188.973 158.537 189.995 158.438 190.884 157.996C191.774 157.555 192.47 156.801 192.84 155.878V155.878Z" fill="#FFB8B8"/>
<path d="M180.883 158.365L180.76 148.131L156.025 144.183L136.97 122.32C135.978 121.183 134.608 120.443 133.113 120.239C131.619 120.034 130.101 120.379 128.84 121.208C128.077 121.71 127.434 122.374 126.955 123.153C126.477 123.931 126.175 124.805 126.071 125.713C125.968 126.621 126.065 127.54 126.355 128.406C126.646 129.273 127.123 130.064 127.754 130.726L143.474 150.079L180.883 158.365Z" fill="#575A89"/>
<path d="M121.476 273.498H127.996L144.169 200.353L160.923 222.949L170.703 271.867H176.898L175.594 219.362L153.751 163.269H132.235C126.355 173.914 121.742 184.887 127.018 196.207L121.476 273.498Z" fill="#2B2A3E"/>
<path d="M166.706 277.941C166.634 278.171 166.612 278.415 166.642 278.655C166.671 278.895 166.751 279.126 166.876 279.333C167.002 279.539 167.17 279.717 167.37 279.853C167.569 279.99 167.795 280.082 168.033 280.124L183.988 282.957C184.619 283.072 185.269 282.953 185.818 282.621C186.367 282.29 186.775 281.769 186.966 281.157V281.157C187.152 280.572 187.126 279.941 186.893 279.373C186.659 278.806 186.234 278.338 185.69 278.054C182.182 276.252 179.163 273.626 176.891 270.401C175.138 272.035 173.178 271.881 171.097 270.677L168.889 270.953L166.706 277.941Z" fill="#2B2A3E"/>
<path d="M118.457 277.941C118.385 278.171 118.363 278.415 118.392 278.655C118.422 278.895 118.502 279.126 118.627 279.333C118.753 279.539 118.921 279.717 119.121 279.853C119.32 279.99 119.546 280.082 119.784 280.124L135.739 282.957C136.37 283.072 137.02 282.953 137.569 282.621C138.118 282.29 138.526 281.769 138.717 281.157V281.157C138.903 280.572 138.877 279.941 138.644 279.373C138.41 278.806 137.985 278.338 137.441 278.054C133.933 276.252 130.914 273.626 128.642 270.401C126.889 272.035 124.929 271.881 122.848 270.677L120.64 270.953L118.457 277.941Z" fill="#2B2A3E"/>
<path d="M138.918 117.775C143.959 117.775 148.046 113.686 148.046 108.643C148.046 103.6 143.959 99.5118 138.918 99.5118C133.876 99.5118 129.789 103.6 129.789 108.643C129.789 113.686 133.876 117.775 138.918 117.775Z" fill="#FFB8B8"/>
<path d="M130.767 165.715L154.566 165.062L147.577 143.058C151.92 136.092 147.549 129.134 141.363 122.177L136.473 118.916L128.648 118.264C125.261 121.89 123.407 126.687 123.476 131.649C123.631 142.276 125.512 153.844 130.767 165.715Z" fill="#575A89"/>
<path d="M185.446 180.526C185.899 180.073 186.238 179.518 186.435 178.909C186.632 178.299 186.681 177.65 186.579 177.018C186.476 176.385 186.225 175.786 185.845 175.269C185.466 174.753 184.969 174.334 184.396 174.047L174.419 169.054L170.767 173.423L180.068 180.83C180.845 181.449 181.823 181.76 182.815 181.704C183.807 181.648 184.743 181.229 185.446 180.526V180.526Z" fill="#FFB8B8"/>
<path d="M173.474 178.107L177.387 168.65L156.198 155.286L147.277 127.687C146.812 126.251 145.844 125.032 144.55 124.256C143.256 123.48 141.725 123.199 140.24 123.466V123.466C139.341 123.627 138.488 123.984 137.742 124.512C136.997 125.039 136.375 125.724 135.923 126.518C135.471 127.311 135.198 128.195 135.125 129.106C135.052 130.016 135.179 130.932 135.498 131.788L142.341 155.768L173.474 178.107Z" fill="#575A89"/>
<path d="M123.921 105.056C123.921 108.609 126.228 114.111 129.137 116.47C131.095 118.057 133.682 117.99 134.68 115.818C135.703 113.589 139.23 108.351 145.438 105.056C153.713 100.663 142.503 93.1479 134.68 94.2938C128.801 95.1549 123.921 99.1121 123.921 105.056Z" fill="#2B2A3E"/>
<path d="M129.463 100.164C133.064 100.164 135.984 97.2438 135.984 93.6416C135.984 90.0393 133.064 87.1191 129.463 87.1191C125.862 87.1191 122.943 90.0393 122.943 93.6416C122.943 97.2438 125.862 100.164 129.463 100.164Z" fill="#2B2A3E"/>
<path d="M136.962 91.3587C136.961 89.7144 136.339 88.131 135.221 86.926C134.102 85.721 132.57 84.9833 130.931 84.861C131.093 84.8489 131.254 84.8363 131.42 84.8363C133.149 84.8363 134.807 85.5235 136.03 86.7467C137.253 87.9698 137.94 89.6289 137.94 91.3587C137.94 93.0886 137.253 94.7476 136.03 95.9708C134.807 97.194 133.149 97.8812 131.42 97.8812C131.254 97.8812 131.093 97.8685 130.931 97.8565C132.57 97.7341 134.102 96.9965 135.221 95.7914C136.339 94.5864 136.961 93.0031 136.962 91.3587Z" fill="#2B2A3E"/>
<path d="M139.081 111.904C139.891 111.904 140.548 111.028 140.548 109.948C140.548 108.867 139.891 107.991 139.081 107.991C138.27 107.991 137.614 108.867 137.614 109.948C137.614 111.028 138.27 111.904 139.081 111.904Z" fill="#FFB8B8"/>
<path d="M323.817 261.536H222.319L200.825 159.896H182.482V155.335H204.521L226.014 256.975H323.817V261.536Z" fill="#5F5D7E"/>
<path d="M237.193 280.105C242.588 280.105 246.962 275.73 246.962 270.332C246.962 264.935 242.588 260.559 237.193 260.559C231.797 260.559 227.423 264.935 227.423 270.332C227.423 275.73 231.797 280.105 237.193 280.105Z" fill="#5F5D7E"/>
<path d="M310.14 280.105C315.535 280.105 319.909 275.73 319.909 270.332C319.909 264.935 315.535 260.559 310.14 260.559C304.744 260.559 300.37 264.935 300.37 270.332C300.37 275.73 304.744 280.105 310.14 280.105Z" fill="#5F5D7E"/>
<path d="M321.967 259.389H223.214L205.79 173.252H338.318C338.994 173.252 339.662 173.399 340.276 173.682C340.891 173.965 341.436 174.378 341.876 174.892C342.315 175.406 342.638 176.009 342.823 176.66C343.007 177.311 343.048 177.994 342.943 178.663L326.591 255.432C326.422 256.537 325.863 257.544 325.014 258.27C324.165 258.996 323.083 259.393 321.967 259.389V259.389ZM224.287 258.086H321.967C322.773 258.089 323.553 257.802 324.166 257.278C324.778 256.754 325.182 256.027 325.304 255.23L341.656 178.46C341.732 177.978 341.702 177.485 341.569 177.015C341.436 176.545 341.203 176.11 340.886 175.739C340.569 175.368 340.175 175.07 339.732 174.865C339.288 174.661 338.806 174.555 338.318 174.555H207.372L224.287 258.086Z" fill="#5F5D7E"/>
<path d="M242.412 259.113L231.001 174.01L232.286 173.798L243.697 258.901L242.412 259.113Z" fill="#5F5D7E"/>
<path d="M305.86 258.46L304.574 258.251L315.651 173.8L316.937 174.008L305.86 258.46Z" fill="#5F5D7E"/>
<path d="M275.63 173.904H274.328V259.007H275.63V173.904Z" fill="#5F5D7E"/>
<path d="M212.444 196.708L212.441 198.011L338.534 198.316L338.537 197.013L212.444 196.708Z" fill="#5F5D7E"/>
<path d="M329.639 236.961L218.864 237.719L218.873 239.022L329.648 238.265L329.639 236.961Z" fill="#5F5D7E"/>
<path d="M184.436 160.873C188.393 160.873 191.601 159.123 191.601 156.964C191.601 154.805 188.393 153.055 184.436 153.055C180.48 153.055 177.272 154.805 177.272 156.964C177.272 159.123 180.48 160.873 184.436 160.873Z" fill="#5F5D7E"/>
</g>
<defs>
<filter id="filter0_d_1_28" x="0" y="0" width="347" height="291" filterUnits="userSpaceOnUse" color-interpolation-filters="sRGB">
<feFlood flood-opacity="0" result="BackgroundImageFix"/>
<feColorMatrix in="SourceAlpha" type="matrix" values="0 0 0 0 0 0 0 0 0 0 0 0 0 0 0 0 0 0 127 0" result="hardAlpha"/>
<feOffset dy="4"/>
<feGaussianBlur stdDeviation="2"/>
<feComposite in2="hardAlpha" operator="out"/>
<feColorMatrix type="matrix" values="0 0 0 0 0 0 0 0 0 0 0 0 0 0 0 0 0 0 0.25 0"/>
<feBlend mode="normal" in2="BackgroundImageFix" result="effect1_dropShadow_1_28"/>
<feBlend mode="normal" in="SourceGraphic" in2="effect1_dropShadow_1_28" result="shape"/>
</filter>
<clipPath id="clip0_1_28">
<rect width="339" height="283" fill="white" transform="translate(4)"/>
</clipPath>
</defs>
</svg>
