<svg width="354" height="276" viewBox="0 0 354 276" fill="none" xmlns="http://www.w3.org/2000/svg">
<g clip-path="url(#clip0_2_99)" filter="url(#filter0_d_2_99)">
<path d="M19.3445 260.355C30.1293 268.132 44.1056 268.522 57.6152 267.567C59.5016 267.434 61.3747 267.277 63.2305 267.109C63.2417 267.106 63.2564 267.107 63.2678 267.104C63.357 267.095 63.4463 267.087 63.5317 267.082C63.9147 267.046 64.2979 267.01 64.6773 266.974L64.5877 267.145L64.3064 267.676C64.4075 267.499 64.5085 267.325 64.6096 267.147C64.6393 267.093 64.6727 267.04 64.7022 266.987C68.202 260.891 71.6731 254.572 72.5585 247.611C73.4737 240.386 70.9016 232.205 64.5487 228.654C63.7156 228.19 62.8333 227.82 61.9181 227.552C61.5382 227.436 61.1531 227.342 60.7637 227.259C58.3811 226.73 55.9006 226.845 53.5772 227.593C51.2538 228.341 49.1715 229.695 47.5442 231.516C45.917 233.336 44.8036 235.558 44.3185 237.952C43.8334 240.346 43.9942 242.826 44.7842 245.138C39.3982 239.61 40.4029 230.642 42.2608 223.147C44.1224 215.653 46.3759 207.313 42.5897 200.581C40.485 196.834 36.7838 194.51 32.6302 193.573C32.5028 193.546 32.3755 193.518 32.2478 193.494C27.2989 192.491 22.1539 193.393 17.8406 196.021C9.89847 201.03 5.81929 210.528 4.49536 219.832C2.36226 234.804 7.08284 251.513 19.3445 260.355Z" fill="#F2F2F2"/>
<path d="M22.8265 236.355C23.1396 239.657 23.9322 242.897 25.1793 245.97C26.3285 248.69 27.8776 251.222 29.7751 253.484C33.6513 258.151 38.7767 261.66 44.343 263.997C48.5992 265.742 53.0586 266.942 57.6152 267.567C59.5016 267.434 61.3747 267.277 63.2304 267.109C63.2417 267.106 63.2564 267.107 63.2678 267.104C63.3569 267.095 63.4463 267.087 63.5317 267.082C63.9147 267.046 64.2979 267.01 64.6773 266.974L64.5877 267.145L64.3064 267.676C64.4075 267.499 64.5085 267.325 64.6096 267.147C64.6393 267.093 64.6726 267.04 64.7022 266.987C61.2861 263.58 58.7356 259.404 57.2643 254.807C55.793 250.211 55.4439 245.328 56.2461 240.569C57.0856 235.843 59.0291 231.383 61.9181 227.552C61.5382 227.436 61.1531 227.342 60.7637 227.259C59.6657 228.762 58.7026 230.358 57.8856 232.031C54.9542 237.994 54.0189 244.744 55.2184 251.281C56.3334 257.196 59.1115 262.67 63.2265 267.06C62.8662 267.035 62.5023 267.006 62.1463 266.973C55.4027 266.401 48.6729 264.95 42.5564 261.978C37.3281 259.499 32.7891 255.771 29.3391 251.123C25.6347 246.01 24.0024 239.859 23.722 233.607C23.4247 226.915 24.2923 220.105 25.8182 213.596C27.3764 206.924 29.7445 200.467 32.8697 194.37C32.9396 194.232 32.9537 194.072 32.9091 193.924C32.8645 193.776 32.7647 193.65 32.6302 193.573C32.5181 193.498 32.3807 193.469 32.2478 193.494C32.1828 193.512 32.1225 193.543 32.0715 193.587C32.0204 193.631 31.9799 193.686 31.9529 193.747C31.5674 194.5 31.189 195.254 30.825 196.016C27.7937 202.364 25.562 209.064 24.1811 215.962C22.8406 222.617 22.125 229.578 22.8265 236.355Z" fill="white"/>
<path d="M343.061 230.415H164.692C162.853 230.413 161.089 229.68 159.788 228.378C158.487 227.076 157.756 225.311 157.753 223.47V6.94512C157.756 5.1038 158.487 3.33848 159.788 2.03647C161.089 0.734454 162.853 0.00207286 164.692 0H343.061C344.901 0.00207286 346.665 0.734454 347.965 2.03647C349.266 3.33848 349.998 5.1038 350 6.94512V223.47C349.998 225.311 349.266 227.076 347.965 228.378C346.665 229.68 344.901 230.413 343.061 230.415V230.415ZM164.692 0.817073C163.069 0.818911 161.513 1.46513 160.365 2.61396C159.217 3.7628 158.572 5.32043 158.57 6.94512V223.47C158.572 225.094 159.217 226.652 160.365 227.801C161.513 228.95 163.069 229.596 164.692 229.598H343.061C344.684 229.596 346.241 228.95 347.388 227.801C348.536 226.652 349.182 225.094 349.184 223.47V6.94512C349.182 5.32043 348.536 3.7628 347.388 2.61396C346.241 1.46513 344.684 0.818911 343.061 0.817073H164.692Z" fill="#E6E6E6"/>
<path d="M349.592 16.9912H158.162V17.8082H349.592V16.9912Z" fill="#E6E6E6"/>
<path d="M167.549 12.2561C169.353 12.2561 170.815 10.7928 170.815 8.98781C170.815 7.18278 169.353 5.71951 167.549 5.71951C165.746 5.71951 164.284 7.18278 164.284 8.98781C164.284 10.7928 165.746 12.2561 167.549 12.2561Z" fill="#E6E6E6"/>
<path d="M177.754 12.2561C179.557 12.2561 181.019 10.7928 181.019 8.98781C181.019 7.18278 179.557 5.71951 177.754 5.71951C175.95 5.71951 174.488 7.18278 174.488 8.98781C174.488 10.7928 175.95 12.2561 177.754 12.2561Z" fill="#E6E6E6"/>
<path d="M187.958 12.2561C189.761 12.2561 191.223 10.7928 191.223 8.98781C191.223 7.18278 189.761 5.71951 187.958 5.71951C186.154 5.71951 184.693 7.18278 184.693 8.98781C184.693 10.7928 186.154 12.2561 187.958 12.2561Z" fill="#E6E6E6"/>
<path d="M315.412 49.4329H188.064C186.657 49.4329 185.307 48.8734 184.312 47.8774C183.317 46.8814 182.758 45.5305 182.758 44.1219C182.758 42.7134 183.317 41.3625 184.312 40.3665C185.307 39.3705 186.657 38.811 188.064 38.811H315.412C316.819 38.811 318.169 39.3705 319.164 40.3665C320.159 41.3625 320.718 42.7134 320.718 44.1219C320.718 45.5305 320.159 46.8814 319.164 47.8774C318.169 48.8734 316.819 49.4329 315.412 49.4329V49.4329ZM188.064 39.628C186.873 39.628 185.731 40.1015 184.889 40.9443C184.047 41.7871 183.574 42.9301 183.574 44.1219C183.574 45.3138 184.047 46.4568 184.889 47.2996C185.731 48.1424 186.873 48.6159 188.064 48.6159H315.412C316.603 48.6159 317.745 48.1424 318.587 47.2996C319.429 46.4568 319.902 45.3138 319.902 44.1219C319.902 42.9301 319.429 41.7871 318.587 40.9443C317.745 40.1015 316.603 39.628 315.412 39.628H188.064Z" fill="#E6E6E6"/>
<path d="M235.713 124.195H185.509C183.669 124.193 181.905 123.461 180.605 122.159C179.304 120.857 178.572 119.091 178.57 117.25V75.9878C178.572 74.1465 179.304 72.3812 180.605 71.0792C181.905 69.7771 183.669 69.0448 185.509 69.0427H235.713C237.553 69.0448 239.317 69.7771 240.618 71.0792C241.918 72.3812 242.65 74.1465 242.652 75.9878V117.25C242.65 119.091 241.918 120.857 240.618 122.159C239.317 123.461 237.553 124.193 235.713 124.195V124.195ZM185.509 69.8598C183.886 69.8616 182.329 70.5078 181.182 71.6567C180.034 72.8055 179.388 74.3631 179.386 75.9878V117.25C179.388 118.875 180.034 120.432 181.182 121.581C182.329 122.73 183.886 123.376 185.509 123.378H235.713C237.337 123.376 238.893 122.73 240.041 121.581C241.188 120.432 241.834 118.875 241.836 117.25V75.9878C241.834 74.3631 241.188 72.8055 240.041 71.6567C238.893 70.5078 237.337 69.8616 235.713 69.8598H185.509Z" fill="#E6E6E6"/>
<path d="M322.245 71.0854H272.04C268.433 71.0854 265.51 74.0119 265.51 77.622V118.884C265.51 122.494 268.433 125.421 272.04 125.421H322.245C325.851 125.421 328.775 122.494 328.775 118.884V77.622C328.775 74.0119 325.851 71.0854 322.245 71.0854Z" fill="#F2F2F2"/>
<path d="M235.713 201H185.509C183.669 200.998 181.905 200.266 180.605 198.964C179.304 197.662 178.572 195.896 178.57 194.055V152.793C178.572 150.951 179.304 149.186 180.605 147.884C181.905 146.582 183.669 145.85 185.509 145.848H235.713C237.553 145.85 239.317 146.582 240.618 147.884C241.918 149.186 242.65 150.951 242.652 152.793V194.055C242.65 195.896 241.918 197.662 240.618 198.964C239.317 200.266 237.553 200.998 235.713 201V201ZM185.509 146.665C183.886 146.666 182.329 147.313 181.182 148.462C180.034 149.61 179.388 151.168 179.386 152.793V194.055C179.388 195.68 180.034 197.237 181.182 198.386C182.329 199.535 183.886 200.181 185.509 200.183H235.713C237.337 200.181 238.893 199.535 240.041 198.386C241.188 197.237 241.834 195.68 241.836 194.055V152.793C241.834 151.168 241.188 149.61 240.041 148.462C238.893 147.313 237.337 146.666 235.713 146.665H185.509Z" fill="#E6E6E6"/>
<path d="M322.245 147.89H272.04C268.433 147.89 265.51 150.817 265.51 154.427V195.689C265.51 199.299 268.433 202.226 272.04 202.226H322.245C325.851 202.226 328.775 199.299 328.775 195.689V154.427C328.775 150.817 325.851 147.89 322.245 147.89Z" fill="#F2F2F2"/>
<path d="M198.118 114.216C198.109 114.216 198.1 114.215 198.091 114.215L192.38 114.003C192.202 113.998 192.032 113.928 191.901 113.807C191.771 113.686 191.688 113.522 191.669 113.345C191.276 109.835 189.659 91.9491 196.434 84.5152C197.393 83.4418 198.579 82.5956 199.906 82.0379C201.232 81.4802 202.666 81.2251 204.103 81.291C204.161 81.2947 204.22 81.2823 204.271 81.2553C204.323 81.2282 204.367 81.1874 204.397 81.1374L205.78 78.963C205.855 78.8452 205.962 78.751 206.089 78.691C206.215 78.631 206.356 78.6076 206.495 78.6235C207.603 78.7576 213.253 79.3904 215.628 78.7019C215.768 78.6606 215.918 78.6615 216.057 78.7045C216.197 78.7475 216.321 78.8307 216.413 78.9437L218.229 81.1643C218.26 81.2045 218.3 81.2366 218.346 81.258C218.392 81.2794 218.443 81.2894 218.494 81.2872C219.417 81.2686 222.654 81.4476 225.488 84.6195C228.556 88.0542 231.722 95.8036 229.383 113.215C229.358 113.394 229.27 113.558 229.135 113.677C228.999 113.796 228.825 113.862 228.645 113.863H224.147C223.969 113.862 223.796 113.797 223.661 113.68C223.526 113.563 223.437 113.402 223.411 113.225L221.942 103.079C221.93 102.995 221.887 102.92 221.822 102.866C221.756 102.813 221.673 102.787 221.589 102.792C221.505 102.797 221.426 102.834 221.368 102.894C221.309 102.955 221.276 103.036 221.274 103.12L221.173 107.884C221.17 108.025 221.127 108.163 221.048 108.28C220.97 108.398 220.86 108.491 220.731 108.548C219.128 109.254 210.656 112.563 201.293 108.419C201.167 108.362 201.058 108.271 200.98 108.156C200.902 108.041 200.858 107.906 200.851 107.767L200.667 103.439C200.664 103.355 200.628 103.275 200.568 103.215C200.508 103.155 200.428 103.121 200.344 103.118C200.259 103.115 200.177 103.144 200.113 103.199C200.049 103.254 200.008 103.332 199.999 103.416L198.857 113.555C198.836 113.736 198.749 113.904 198.613 114.025C198.477 114.147 198.301 114.215 198.118 114.216V114.216Z" fill="#3F4959"/>
<path d="M221.74 188.964H221.736L199.36 188.822C199.197 188.821 199.04 188.76 198.919 188.652C198.798 188.543 198.72 188.394 198.701 188.232L196.45 169.083C196.436 168.959 196.379 168.845 196.287 168.761C196.196 168.677 196.077 168.628 195.953 168.625C194.177 168.567 189.95 168.161 189.075 165.657C188.295 163.427 190.428 160.138 195.416 155.881C195.5 155.808 195.602 155.758 195.711 155.735C195.82 155.711 195.934 155.716 196.041 155.748C196.148 155.78 196.245 155.838 196.324 155.917C196.402 155.997 196.46 156.094 196.491 156.202L199.08 165.142C199.112 165.25 199.177 165.344 199.266 165.411C199.355 165.479 199.464 165.516 199.576 165.517L220.792 165.66C220.903 165.661 221.011 165.626 221.101 165.561C221.191 165.495 221.257 165.402 221.29 165.296L224.171 156.121C224.203 156.019 224.259 155.926 224.335 155.85C224.411 155.773 224.504 155.717 224.606 155.684C224.708 155.652 224.816 155.645 224.922 155.663C225.028 155.681 225.127 155.725 225.213 155.79C227.178 157.293 233.511 162.452 232.469 165.752C231.923 167.48 229.461 168.443 225.15 168.615C225.027 168.619 224.908 168.668 224.818 168.752C224.727 168.836 224.669 168.95 224.655 169.074L222.403 188.373C222.384 188.536 222.306 188.686 222.184 188.795C222.062 188.904 221.904 188.964 221.74 188.964V188.964Z" fill="#3F4959"/>
<path d="M319.796 108.325C312.764 109.68 306.133 112.619 300.406 116.92C300.116 116.148 299.57 115.5 298.86 115.082C298.374 114.781 297.845 114.558 297.29 114.422C296.786 114.294 296.302 114.6 295.857 115.043C295.345 115.61 294.915 116.246 294.581 116.933C286.897 111.654 275.24 108.285 275.24 108.285V107.229C275.25 106.981 275.275 106.733 275.316 106.487C275.356 106.203 275.405 105.953 275.468 105.646C276.457 100.611 280.366 89.1053 280.366 89.1053H284.787L293.358 90.8871L303 90.2965L312.711 88.2739L313.971 88.0099C316.071 89.6597 318.454 101.208 319.39 106.124C319.509 106.748 319.601 107.262 319.67 107.642C319.753 108.071 319.796 108.325 319.796 108.325Z" fill="white"/>
<path d="M293.418 159.01C293.418 159.01 291.365 159.524 288.181 168.157C284.996 176.79 283.868 187.944 283.868 187.944C283.868 187.944 282.077 190.979 289.721 191.182C289.721 191.182 289.106 193.186 293.418 192.879C297.731 192.571 297.11 192.574 297.11 192.574C297.11 192.574 299.883 190.826 301.115 191.134C302.348 191.442 303.118 191.546 304.452 192.675C305.786 193.805 310.051 193.344 310.101 192.472C310.136 192.044 310.136 191.613 310.101 191.185C310.101 191.185 316.622 191.597 315.39 186.868C314.157 182.14 313.131 174.379 313.131 174.379C313.131 174.379 309.794 159.219 305.992 159.013C302.19 158.807 293.418 159.01 293.418 159.01Z" fill="white"/>
<path d="M82.6294 144.457C89.3921 144.457 94.8744 138.97 94.8744 132.201C94.8744 125.432 89.3921 119.945 82.6294 119.945C75.8666 119.945 70.3844 125.432 70.3844 132.201C70.3844 138.97 75.8666 144.457 82.6294 144.457Z" fill="#282733"/>
<path d="M83.6578 144.48C89.1945 144.48 93.6828 139.988 93.6828 134.446C93.6828 128.904 89.1945 124.412 83.6578 124.412C78.1212 124.412 73.6328 128.904 73.6328 134.446C73.6328 139.988 78.1212 144.48 83.6578 144.48Z" fill="#FFB8B8"/>
<path d="M121.837 164.966C121.678 165.126 121.532 165.299 121.4 165.482L101.17 164.767L98.8561 160.424L91.851 163.062L95.2006 171.149C95.4712 171.803 95.9462 172.35 96.5543 172.711C97.1625 173.071 97.871 173.224 98.5734 173.146L121.465 170.631C121.997 171.32 122.726 171.831 123.555 172.095C124.384 172.36 125.274 172.365 126.106 172.111C126.938 171.857 127.673 171.355 128.214 170.673C128.754 169.99 129.074 169.159 129.131 168.29C129.188 167.421 128.98 166.556 128.533 165.808C128.087 165.061 127.423 164.467 126.632 164.106C125.84 163.745 124.957 163.634 124.1 163.788C123.244 163.941 122.455 164.352 121.837 164.966H121.837Z" fill="#FFB8B8"/>
<path d="M89.1563 166.967C88.8986 166.851 88.6687 166.681 88.4826 166.469C88.2964 166.256 88.1583 166.006 88.0777 165.734L85.26 156.269C84.6482 154.958 84.5806 153.458 85.0721 152.097C85.5637 150.737 86.5742 149.627 87.8821 149.011C89.1901 148.395 90.6887 148.323 92.0495 148.811C93.4102 149.299 94.522 150.308 95.1411 151.615L100.599 159.882C100.755 160.118 100.858 160.385 100.902 160.664C100.945 160.943 100.928 161.229 100.851 161.501C100.774 161.773 100.64 162.026 100.457 162.241C100.274 162.457 100.047 162.63 99.7908 162.75L90.7936 166.955C90.5377 167.075 90.2589 167.138 89.9763 167.14C89.6937 167.142 89.4141 167.083 89.1563 166.967V166.967Z" fill="#CCCCCC"/>
<path d="M109.081 263.068L113.476 260.673L106.339 242.566L99.8526 246.1L109.081 263.068Z" fill="#FFB8B8"/>
<path d="M107.179 262.242L115.834 257.526L115.835 257.526C116.559 257.131 117.354 256.883 118.174 256.796C118.994 256.709 119.823 256.784 120.614 257.018C121.405 257.252 122.143 257.639 122.784 258.158C123.426 258.677 123.959 259.317 124.353 260.042L124.451 260.221L110.279 267.943L107.179 262.242Z" fill="#282733"/>
<path d="M60.7184 263.087H65.7222L68.103 243.768L60.7172 243.769L60.7184 263.087Z" fill="#FFB8B8"/>
<path d="M59.4419 261.452L69.2966 261.452H69.297C70.1217 261.452 70.9383 261.614 71.7003 261.93C72.4623 262.246 73.1546 262.709 73.7378 263.293C74.321 263.877 74.7835 264.57 75.0992 265.332C75.4148 266.095 75.5772 266.912 75.5772 267.738V267.942L59.4422 267.943L59.4419 261.452Z" fill="#282733"/>
<path d="M91.8131 177.344L93.4458 196.954L111.658 251.639C111.729 251.854 111.755 252.082 111.734 252.307C111.713 252.533 111.646 252.752 111.535 252.95C111.425 253.148 111.275 253.321 111.095 253.458C110.914 253.595 110.707 253.693 110.487 253.745L104.905 255.075C104.548 255.161 104.172 255.123 103.839 254.968C103.506 254.813 103.235 254.55 103.069 254.221L79.7857 207.994C79.7098 207.844 79.5891 207.72 79.4403 207.641C79.2915 207.562 79.1218 207.53 78.9546 207.551C78.7873 207.573 78.6307 207.645 78.5062 207.759C78.3818 207.873 78.2955 208.022 78.2594 208.187L68.0128 254.908C67.933 255.272 67.7314 255.597 67.4414 255.831C67.1514 256.064 66.7903 256.192 66.4181 256.192H61.2255C61.0092 256.192 60.7951 256.149 60.5955 256.066C60.396 255.982 60.215 255.86 60.0631 255.706C59.9113 255.552 59.7917 255.369 59.7111 255.168C59.6306 254.967 59.5909 254.752 59.5942 254.535C60.07 222.14 58.5003 185.226 70.9966 179.387L73.0375 174.076L91.8131 177.344Z" fill="#282733"/>
<path d="M72.4497 175.467L70.3454 162.729C69.9971 160.641 70.1797 158.498 70.8766 156.498C71.5734 154.499 72.7619 152.707 74.3326 151.288C75.8679 149.883 77.732 148.887 79.7529 148.393C81.7739 147.898 83.8867 147.921 85.8965 148.459C86.0158 148.491 86.1351 148.524 86.2547 148.557C88.7277 149.266 90.9237 150.717 92.5462 152.715C94.1686 154.713 95.1394 157.161 95.3273 159.729C95.7289 165.261 95.3695 173.286 91.3769 180.103L91.2994 180.235L72.4497 175.467Z" fill="#CCCCCC"/>
<path d="M93.6306 129.113C91.3398 130.694 88.6207 131.535 85.8384 131.523C86.8309 132.212 87.9607 132.677 89.1501 132.887C85.4509 133.681 81.6278 133.703 77.9199 132.95C77.0957 132.818 76.3004 132.545 75.5689 132.142C75.2044 131.938 74.8868 131.66 74.6368 131.325C74.3868 130.991 74.21 130.607 74.1178 130.2C73.8714 128.791 74.9682 127.511 76.108 126.648C77.8532 125.348 79.8653 124.452 81.9989 124.025C84.1325 123.598 86.3341 123.651 88.4446 124.181C89.8227 124.537 91.2032 125.14 92.0983 126.247C92.9934 127.355 93.2586 129.063 92.4058 130.204L93.6306 129.113Z" fill="#282733"/>
<path d="M82.4681 119.884C83.6303 115.188 79.4652 109.97 74.6322 110.068C69.7288 110.167 66.1204 114.602 63.6399 118.837C61.1595 123.071 58.6944 127.872 54.1407 129.695C52.6338 130.299 51.0009 130.518 49.3884 130.334C47.7758 130.151 46.234 129.569 44.9013 128.642C43.5685 127.715 42.4864 126.472 41.752 125.023C41.0175 123.574 40.6538 121.966 40.6932 120.342C40.0818 125.487 40.9289 131.054 44.2438 135.033C47.5587 139.012 53.7269 140.806 58.1604 138.131C60.6925 136.604 62.3109 133.949 63.6452 131.309C64.9795 128.668 66.1668 125.884 68.1886 123.725C70.2104 121.566 73.3365 120.133 76.1502 121.041C77.267 121.402 78.269 122.105 79.4229 122.318C80.5768 122.532 82.0296 121.983 82.1872 120.819L82.4681 119.884Z" fill="#282733"/>
<path d="M58.3061 205.041C57.89 204.553 57.5859 203.979 57.4151 203.361C57.2444 202.742 57.2113 202.094 57.318 201.461C57.4247 200.829 57.6687 200.227 58.0329 199.699C58.397 199.171 58.8724 198.729 59.4255 198.405L68.1216 159.391L76.9431 163.015L65.6212 200.225C66.1039 201.191 66.2157 202.301 65.9354 203.344C65.6552 204.387 65.0024 205.291 64.1007 205.885C63.199 206.478 62.1111 206.72 61.0431 206.565C59.9752 206.409 59.0013 205.867 58.3061 205.041H58.3061Z" fill="#FFB8B8"/>
<path d="M64.6761 164.988C64.5372 164.741 64.4531 164.468 64.4294 164.186C64.4057 163.904 64.443 163.621 64.5388 163.355L67.8828 154.063C68.1674 152.644 69.0025 151.396 70.2048 150.593C71.4071 149.79 72.8787 149.497 74.2967 149.778C75.7147 150.059 76.9635 150.891 77.7693 152.092C78.5751 153.294 78.8721 154.766 78.5951 156.186L78.0871 166.081C78.0726 166.364 77.9975 166.64 77.8668 166.89C77.7361 167.141 77.553 167.361 77.3299 167.534C77.1068 167.708 76.8489 167.831 76.5739 167.896C76.2989 167.961 76.0131 167.965 75.7361 167.91L66.0012 165.95C65.7241 165.895 65.4623 165.78 65.2336 165.614C65.0049 165.448 64.8148 165.234 64.6761 164.988Z" fill="#CCCCCC"/>
<path d="M135.926 160.612L135.781 160.592L136.326 156.62C136.41 156.011 136.248 155.392 135.877 154.902C135.505 154.412 134.954 154.089 134.345 154.005L125.937 152.848C125.328 152.765 124.71 152.926 124.22 153.298C123.73 153.67 123.408 154.222 123.324 154.831L120.331 176.623C120.248 177.233 120.409 177.851 120.781 178.341C121.152 178.831 121.703 179.154 122.313 179.238L130.721 180.395C131.33 180.479 131.947 180.317 132.437 179.945C132.927 179.573 133.25 179.022 133.333 178.412L135.392 163.42L135.537 163.44L135.926 160.612Z" fill="#E6E6E6"/>
<path d="M134.081 155.171L133.034 155.027C133.066 155.151 133.067 155.282 133.036 155.407C133.006 155.532 132.945 155.648 132.859 155.744C132.774 155.84 132.666 155.914 132.545 155.958C132.424 156.003 132.294 156.017 132.167 155.999L127.572 155.367C127.445 155.35 127.324 155.301 127.22 155.225C127.115 155.15 127.031 155.05 126.975 154.934C126.918 154.819 126.891 154.691 126.895 154.562C126.9 154.433 126.936 154.308 127 154.196L126.022 154.062C125.807 154.032 125.589 154.045 125.379 154.1C125.169 154.155 124.972 154.251 124.799 154.382C124.627 154.513 124.481 154.677 124.372 154.865C124.262 155.052 124.191 155.259 124.161 155.474L121.311 176.23C121.281 176.445 121.294 176.664 121.349 176.874C121.404 177.084 121.5 177.281 121.631 177.454C121.762 177.627 121.926 177.772 122.113 177.882C122.3 177.991 122.507 178.063 122.722 178.092L130.78 179.201C131.214 179.261 131.654 179.146 132.003 178.881C132.352 178.616 132.582 178.223 132.641 177.789V177.789L135.492 157.033C135.552 156.599 135.436 156.159 135.172 155.809C134.907 155.46 134.515 155.23 134.081 155.171L134.081 155.171Z" fill="white"/>
<path d="M128.365 172.402C130.845 172.402 132.855 170.39 132.855 167.909C132.855 165.427 130.845 163.415 128.365 163.415C125.886 163.415 123.876 165.427 123.876 167.909C123.876 170.39 125.886 172.402 128.365 172.402Z" fill="#3F4959"/>
<path d="M127.92 169.623C127.819 169.623 127.721 169.59 127.64 169.53L127.635 169.526L126.58 168.717C126.531 168.68 126.49 168.633 126.459 168.58C126.428 168.526 126.408 168.468 126.399 168.406C126.391 168.345 126.395 168.283 126.411 168.223C126.427 168.164 126.454 168.108 126.492 168.059C126.529 168.01 126.576 167.969 126.63 167.938C126.683 167.907 126.742 167.887 126.803 167.879C126.864 167.871 126.927 167.875 126.986 167.891C127.046 167.907 127.101 167.935 127.15 167.972L127.834 168.497L129.449 166.389C129.486 166.34 129.533 166.299 129.586 166.268C129.64 166.237 129.698 166.217 129.759 166.209C129.821 166.201 129.883 166.205 129.942 166.221C130.001 166.237 130.057 166.264 130.106 166.302L130.096 166.316L130.106 166.302C130.205 166.378 130.269 166.49 130.286 166.613C130.302 166.736 130.269 166.861 130.193 166.96L128.293 169.44C128.249 169.497 128.193 169.543 128.128 169.575C128.064 169.607 127.992 169.623 127.92 169.623Z" fill="white"/>
<path d="M169.746 268H14.2347C14.1264 268 14.0226 267.957 13.9461 267.88C13.8695 267.804 13.8265 267.7 13.8265 267.591C13.8265 267.483 13.8695 267.379 13.9461 267.303C14.0226 267.226 14.1264 267.183 14.2347 267.183H169.746C169.854 267.183 169.958 267.226 170.035 267.303C170.111 267.379 170.154 267.483 170.154 267.591C170.154 267.7 170.111 267.804 170.035 267.88C169.958 267.957 169.854 268 169.746 268Z" fill="#E6E6E6"/>
</g>
<defs>
<filter id="filter0_d_2_99" x="0" y="0" width="354" height="276" filterUnits="userSpaceOnUse" color-interpolation-filters="sRGB">
<feFlood flood-opacity="0" result="BackgroundImageFix"/>
<feColorMatrix in="SourceAlpha" type="matrix" values="0 0 0 0 0 0 0 0 0 0 0 0 0 0 0 0 0 0 127 0" result="hardAlpha"/>
<feOffset dy="4"/>
<feGaussianBlur stdDeviation="2"/>
<feComposite in2="hardAlpha" operator="out"/>
<feColorMatrix type="matrix" values="0 0 0 0 0 0 0 0 0 0 0 0 0 0 0 0 0 0 0.25 0"/>
<feBlend mode="normal" in2="BackgroundImageFix" result="effect1_dropShadow_2_99"/>
<feBlend mode="normal" in="SourceGraphic" in2="effect1_dropShadow_2_99" result="shape"/>
</filter>
<clipPath id="clip0_2_99">
<rect width="346" height="268" fill="white" transform="translate(4)"/>
</clipPath>
</defs>
</svg>
